<svg xmlns="http://www.w3.org/2000/svg" width="302" height="156" version="1.0" viewBox="0 0 226.5 117"><defs><clipPath id="a"><path d="M51 46h38v70.871H51Zm0 0"/></clipPath><clipPath id="b"><path d="M110 46h50v70.871h-50Zm0 0"/></clipPath><clipPath id="c"><path d="M77 .129h44V39H77Zm0 0"/></clipPath><clipPath id="d"><path d="M76 63h32v53.871H76Zm0 0"/></clipPath><clipPath id="e"><path d="M0 115h226v1.871H0Zm0 0"/></clipPath></defs><path fill="none" stroke="#2e186a" stroke-linecap="round" stroke-linejoin="round" stroke-width=".8260799999999999" d="m43.742 100.957-3.36-26.789c-1.32-10.547 6.196-19.098 16.806-19.098H74.93"/><g clip-path="url(#a)"><path fill="none" stroke="#2e186a" stroke-linecap="round" stroke-linejoin="round" stroke-width=".8260799999999999" d="m86.047 54.598 2.203-3.102-.578-4.164q-.234-.444-.48-.918c-12.028 1.79-13.493 6.828-10.79 12.227-19.957 3.898-28.644 34.523-23.453 49.054 1.48 4.133 2.668 8.262 7.059 8.31"/></g><path fill="#545454" d="M92.32 65.73v-.078c.653.067 1.285.07 1.899-.46 1.515-1.313 2.05-1.704 2.05-1.704s.137.164.383.442c.297-.551.61-1.121.926-1.7-6.539-5.062-11.531-7.632-11.531-7.632l-.367-.266-2.403 2.93s3.907 2.695 9.043 8.468M123.926 113.266s-10.465-28.137-9.133-36.86c.727-4.754-.41-10.148-1.984-14.316l-2.996.195-3.59 8.48q.35.09.703.141s-.137.89-.477 2.938c-.226 1.363.164 1.511.473 2.46.394.637.703 1.352.367 2.462-.11.359-.371 3.77-.965 8.398a101 101 0 0 1 3.14 7.434c6.345 16.922 5.684 18.77 5.684 18.77Zm0 0"/><g clip-path="url(#b)"><path fill="none" stroke="#2e186a" stroke-linecap="round" stroke-linejoin="round" stroke-width=".8260799999999999" d="M159.36 115.781c-.754-4.953-6.125-31.558-36.852-54.894-.687-4.168-2.43-10.727-11.379-13.797"/></g><path fill="none" stroke="#2e186a" stroke-linecap="round" stroke-linejoin="round" stroke-width="1.10144" d="M117.285 74.926s-.328 8.988 1.637 15.45"/><path fill="#2e186a" d="M122.102 60.785c.097.586.171 1.125.246 1.602.847 5.48-.965 9.12-2.16 11.644 3.21-2.273 5.378-6.594 6.472-9.886-1.32-1.06-3.125-2.29-4.558-3.36M76.719 58.398c-2.246.457-5.942 1.579-8.602 3.418 1.86 1.012 11.063 6.528 18.586 9.832.059-.035.473-.722.68-.992-4.164-3.3-8.543-8.004-10.664-12.258m0 0"/><path fill="none" stroke="#2e186a" stroke-linecap="round" stroke-linejoin="round" stroke-width=".8260799999999999" d="M82.777 36.469s-5.109 1.387-3.042 5.75c1.437 3.027 4.167 1.953 5.796 1.035M84.14 37.3l1.606-.538c1.059.64 4.555 4.984 5.684 7.137 0 0 5.133-3.329 13.148-5.461 0 0 4.364-.997 6.258-.915-.55-4.406-1.676-10.035-3.656-15.066-2.95-7.48-12.074-4.578-13.403-4.129-14.23 4.84-9.652 18.942-9.652 18.942Zm0 0"/><path fill="none" stroke="#2e186a" stroke-linecap="round" stroke-linejoin="round" stroke-width=".8260799999999999" d="M100.156 55.762c-1.71 0-3.34-.285-4.62-.793-4.16-1.64-5.044-2.7-6.536-5.2-1.492-2.495-6.168-12.03-6.168-12.03l2.914-.977c1.059.64 4.555 4.984 5.684 7.137 0 0 5.133-3.329 13.148-5.461 0 0 4.407-1.008 6.29-.915 0 0 .902 4.481.359 8.872"/><g clip-path="url(#c)"><path fill="#2e186a" d="M83.188 38.984s-2.63-3.05-4.532-6.699c-1.789-3.426-1.047-7.676 1.918-10.152 2.485-2.082 4.848-1.531 4.848-1.531s-4.277-4.356-.902-9.989a8.3 8.3 0 0 1 2.304-2.515 8.5 8.5 0 0 1 3.117-1.395c5.532-1.21 8.395 3.012 8.395 3.012s3.184-12.281 16.84-8.902c1.379.34 3.199 1.796 4.16 2.843 5.812 6.348-5.14 18.324-11.8 20.723-7.317 2.633-12.02 2.488-14.895 1.258 2.066.629 2.14 12.285-9.454 13.347m0 0"/></g><path fill="none" stroke="#2e186a" stroke-linecap="round" stroke-linejoin="round" stroke-width="1.10144" d="m104.301 35.191 2.578 6.864-2.652-.016"/><path fill="#2e186a" d="M104.188 46.7a1.3 1.3 0 0 1-.102.5q-.1.24-.281.421a1.3 1.3 0 0 1-.422.285q-.241.096-.5.098-.259-.002-.5-.098a1.3 1.3 0 0 1-.422-.285 1.2 1.2 0 0 1-.281-.422 1.3 1.3 0 0 1-.102-.5q0-.259.102-.5a1.288 1.288 0 0 1 .703-.703 1.3 1.3 0 0 1 .5-.101q.259.001.5.101c.156.066.3.16.422.281a1.33 1.33 0 0 1 .382.922M107.793 34.457q.117.463-.012.844-.13.38-.43.457-.3.075-.593-.2a1.5 1.5 0 0 1-.41-.742 1.47 1.47 0 0 1 .011-.843c.09-.254.23-.407.43-.457.203-.051.398.02.594.203.199.18.336.43.41.738M100.793 36.078q.117.463-.012.844c-.09.254-.23.406-.43.457q-.302.075-.593-.2-.3-.274-.41-.742a1.47 1.47 0 0 1 .011-.843q.13-.381.43-.457c.2-.051.398.02.594.199.195.184.332.434.41.742m0 0"/><path fill="none" stroke="#2e186a" stroke-linecap="round" stroke-linejoin="round" stroke-width="1.10144" d="M95.5 31.883a3.4 3.4 0 0 1 1.14-1.399c.509-.359 1.071-.57 1.692-.62M104.953 28.082s1.88-1.023 2.79.492"/><path fill="#2e186a" d="M186.414 77.727h-53.531c-.348 0-.664.109-.938.324q-.41.33-.535.84l-7.441 31.504h-19.403s-1.074 5.554 5.196 5.554h68.34q.527 0 .937-.328a1.47 1.47 0 0 0 .535-.84l8.317-35.195q.077-.336.004-.676a1.5 1.5 0 0 0-.293-.61 1.496 1.496 0 0 0-1.187-.574m0 0"/><path fill="#545454" d="M164.758 28.621h.422q.282 0 .484.203a.65.65 0 0 1 .203.485v1.086a.66.66 0 0 1-.203.488.67.67 0 0 1-.484.203h-.422a.67.67 0 0 1-.488-.203.67.67 0 0 1-.204-.488v-1.086q.001-.284.204-.485a.66.66 0 0 1 .488-.203m0 0"/><path fill="#2e186a" d="M151.703 28.621h10.984q.289 0 .489.203a.67.67 0 0 1 .203.485v1.086a.67.67 0 0 1-.203.488.67.67 0 0 1-.488.203h-10.985a.68.68 0 0 1-.488-.203.67.67 0 0 1-.2-.488v-1.086q0-.284.2-.485a.66.66 0 0 1 .488-.203M151.703 40.063h12.106q.286-.001.484.203a.65.65 0 0 1 .203.484v1.086a.66.66 0 0 1-.203.488.66.66 0 0 1-.484.203h-12.106a.68.68 0 0 1-.488-.203.67.67 0 0 1-.2-.488V40.75c0-.187.067-.352.2-.484a.66.66 0 0 1 .488-.203m0 0"/><path fill="#545454" d="M155.11 36.254h19.535q.287 0 .488.2a.68.68 0 0 1 .203.487v1.086c0 .192-.07.352-.203.489a.67.67 0 0 1-.488.199h-19.536a.66.66 0 0 1-.484-.2.66.66 0 0 1-.203-.488v-1.086a.66.66 0 0 1 .203-.488.66.66 0 0 1 .484-.2M177.191 36.254h9.918q.289 0 .489.2a.68.68 0 0 1 .203.487v1.086c0 .192-.07.352-.203.489a.67.67 0 0 1-.489.199h-9.918a.66.66 0 0 1-.484-.2.66.66 0 0 1-.203-.488v-1.086a.66.66 0 0 1 .203-.488.66.66 0 0 1 .484-.2m0 0"/><path fill="#2e186a" d="M190.512 32.445h.422c.191 0 .351.067.488.2.133.136.2.296.2.488v1.086a.67.67 0 0 1-.2.488.67.67 0 0 1-.488.2h-.422a.66.66 0 0 1-.485-.2.66.66 0 0 1-.203-.488v-1.086a.66.66 0 0 1 .203-.488.66.66 0 0 1 .485-.2M151.703 32.438h20.246q.287-.001.485.203a.65.65 0 0 1 .203.484v1.086a.66.66 0 0 1-.203.488.66.66 0 0 1-.485.203h-20.246a.68.68 0 0 1-.488-.203.67.67 0 0 1-.2-.488v-1.086c0-.187.067-.352.2-.484a.66.66 0 0 1 .488-.203M167.348 28.621h10.988q.282 0 .484.203a.65.65 0 0 1 .203.485v1.086a.66.66 0 0 1-.203.488.67.67 0 0 1-.484.203h-10.988a.68.68 0 0 1-.489-.203.67.67 0 0 1-.199-.488v-1.086q0-.284.2-.485a.66.66 0 0 1 .488-.203m0 0"/><path fill="#545454" d="M174.293 32.43h13.875q.287-.001.488.203a.67.67 0 0 1 .203.484v1.102c0 .191-.07.351-.203.488a.67.67 0 0 1-.488.2h-13.875a.67.67 0 0 1-.488-.2.67.67 0 0 1-.2-.488v-1.102q0-.282.2-.484a.66.66 0 0 1 .488-.203m0 0"/><path fill="#2e186a" d="M151.703 53.316h10.984q.289 0 .489.204a.67.67 0 0 1 .203.484v1.086a.67.67 0 0 1-.203.488.67.67 0 0 1-.488.203h-10.985a.68.68 0 0 1-.488-.203.67.67 0 0 1-.2-.488v-1.086q0-.284.2-.484a.66.66 0 0 1 .488-.204M151.703 64.758h12.106q.286 0 .484.199a.66.66 0 0 1 .203.488v1.086a.66.66 0 0 1-.203.489.66.66 0 0 1-.484.199h-12.106a.67.67 0 0 1-.488-.2.67.67 0 0 1-.2-.488v-1.086c0-.191.067-.351.2-.488a.67.67 0 0 1 .488-.2m0 0"/><path fill="#545454" d="M155.11 60.95h19.535q.287-.001.488.202a.67.67 0 0 1 .203.485v1.086a.67.67 0 0 1-.203.488.67.67 0 0 1-.488.203h-19.536a.67.67 0 0 1-.484-.203.66.66 0 0 1-.203-.488v-1.086q-.001-.284.203-.485a.65.65 0 0 1 .484-.203M177.191 60.95h9.918q.289-.001.489.202a.67.67 0 0 1 .203.485v1.086a.67.67 0 0 1-.203.488.67.67 0 0 1-.489.203h-9.918a.67.67 0 0 1-.484-.203.66.66 0 0 1-.203-.488v-1.086q-.001-.284.203-.485a.65.65 0 0 1 .484-.203m0 0"/><path fill="#2e186a" d="M190.512 57.14h.422c.191 0 .351.067.488.2.133.137.2.297.2.488v1.086a.67.67 0 0 1-.2.488.67.67 0 0 1-.488.2h-.422a.66.66 0 0 1-.485-.2.66.66 0 0 1-.203-.488v-1.086a.66.66 0 0 1 .203-.488.66.66 0 0 1 .485-.2M193.656 53.316h.422a.66.66 0 0 1 .488.204c.133.132.2.296.2.484v1.086a.67.67 0 0 1-.2.488.68.68 0 0 1-.488.203h-.422a.67.67 0 0 1-.484-.203.66.66 0 0 1-.203-.488v-1.086q-.001-.284.203-.484a.65.65 0 0 1 .484-.204M151.703 57.133h20.246q.287-.001.485.203a.65.65 0 0 1 .203.484v1.086a.66.66 0 0 1-.203.489.66.66 0 0 1-.485.203h-20.246a.68.68 0 0 1-.488-.203.67.67 0 0 1-.2-.489V57.82c0-.187.067-.351.2-.484a.66.66 0 0 1 .488-.203m0 0"/><path fill="#545454" d="M164.758 53.316h13.578q.282 0 .484.204a.65.65 0 0 1 .203.484v1.086a.66.66 0 0 1-.203.488.67.67 0 0 1-.484.203h-13.578a.67.67 0 0 1-.488-.203.67.67 0 0 1-.204-.488v-1.086q.001-.284.204-.484a.66.66 0 0 1 .488-.204M180.664 53.316h10.984q.289 0 .489.204a.67.67 0 0 1 .203.484v1.086a.67.67 0 0 1-.203.488.67.67 0 0 1-.489.203h-10.984a.68.68 0 0 1-.488-.203.67.67 0 0 1-.2-.488v-1.086q0-.284.2-.484a.66.66 0 0 1 .488-.204M164.758 49.625h.422q.282-.001.484.203a.65.65 0 0 1 .203.484v1.086a.66.66 0 0 1-.203.489.67.67 0 0 1-.484.203h-.422a.67.67 0 0 1-.488-.203.67.67 0 0 1-.204-.489v-1.086c0-.187.07-.351.204-.484a.66.66 0 0 1 .488-.203m0 0"/><path fill="#2e186a" d="M151.703 49.625h10.984q.289-.001.489.203a.67.67 0 0 1 .203.484v1.086a.67.67 0 0 1-.203.489.67.67 0 0 1-.488.203h-10.985a.68.68 0 0 1-.488-.203.67.67 0 0 1-.2-.489v-1.086c0-.187.067-.351.2-.484a.66.66 0 0 1 .488-.203M167.348 49.625h10.988q.282-.001.484.203a.65.65 0 0 1 .203.484v1.086a.66.66 0 0 1-.203.489.67.67 0 0 1-.484.203h-10.988a.68.68 0 0 1-.489-.203.67.67 0 0 1-.199-.489v-1.086c0-.187.067-.351.2-.484a.66.66 0 0 1 .488-.203m0 0"/><path fill="#545454" d="M174.293 57.125h13.875q.287-.001.488.203a.67.67 0 0 1 .203.484v1.102a.67.67 0 0 1-.203.488.67.67 0 0 1-.488.203h-13.875a.68.68 0 0 1-.488-.203.67.67 0 0 1-.2-.488v-1.102c0-.187.067-.351.2-.484a.66.66 0 0 1 .488-.203m0 0"/><path fill="none" stroke="#2e186a" stroke-linecap="round" stroke-linejoin="round" stroke-width=".8260799999999999" d="M204.36 101.477a3.6 3.6 0 0 1 1.683-.172 3.64 3.64 0 0 1 2.004.98 3.6 3.6 0 0 1 .832 1.246q.142.352.207.727.065.374.047.754-.017.376-.11.746a3.6 3.6 0 0 1-.671 1.34 3.44 3.44 0 0 1-1.16.953 3.634 3.634 0 0 1-1.445.395 3.7 3.7 0 0 1-.754-.04M195.707 101.945l-5.129-6.265"/><path fill="#2e186a" d="M189.824 100.004v11.812q.001.406.078.805a4.3 4.3 0 0 0 .618 1.488q.228.341.515.63a4.194 4.194 0 0 0 1.34.895q.375.15.773.233c.266.055.536.078.805.078h6.969c.27 0 .539-.023.805-.078q.398-.083.773-.234a4 4 0 0 0 .715-.383 4 4 0 0 0 .629-.512q.286-.287.511-.629a4 4 0 0 0 .618-1.488q.077-.4.078-.805v-11.812Zm6.16 8.648q.142.083.137.243a.275.275 0 0 1-.273.277.3.3 0 0 1-.141-.035l-2.75-1.653a.26.26 0 0 1-.16-.25q.001-.174.16-.25l2.75-1.652a.3.3 0 0 1 .14-.035q.113 0 .196.082.076.083.078.195a.25.25 0 0 1-.137.242l-2.37 1.422Zm3.442-4.074-2.215 5.543a.4.4 0 0 1-.055.074.26.26 0 0 1-.199.086.275.275 0 0 1-.273-.277q0-.06.023-.117l2.215-5.54a.3.3 0 0 1 .062-.081.24.24 0 0 1 .192-.079.275.275 0 0 1 .277.274.3.3 0 0 1-.027.125Zm3.754 2.899-2.754 1.652a.3.3 0 0 1-.14.035.25.25 0 0 1-.192-.082.26.26 0 0 1-.082-.195.26.26 0 0 1 .136-.242l2.372-1.41-2.368-1.422a.26.26 0 0 1-.136-.243.26.26 0 0 1 .078-.195.285.285 0 0 1 .336-.047l2.754 1.652q.157.075.156.25c0 .114-.05.2-.156.247Zm0 0"/><path fill="none" stroke="#2e186a" stroke-linecap="round" stroke-linejoin="round" stroke-width=".8260799999999999" d="M33.758 108.442a3.58 3.58 0 0 1-3.469-1.97 3.57 3.57 0 0 1-.203-2.738q.223-.68.691-1.218.465-.542 1.106-.86a3.53 3.53 0 0 1 2-.363"/><path fill="#2e186a" d="M33.293 100.004v11.812c0 .27.023.54.078.805a4.017 4.017 0 0 0 .617 1.488 4 4 0 0 0 1.14 1.141 4 4 0 0 0 1.49.617c.265.055.534.078.804.078h6.969c.27 0 .539-.023.804-.078q.399-.083.774-.234a4.2 4.2 0 0 0 1.34-.895 4.2 4.2 0 0 0 .898-1.34q.153-.379.234-.777.078-.4.079-.805v-11.812Zm6.16 8.648a.26.26 0 0 1 .137.243c0 .078-.028.14-.082.195a.25.25 0 0 1-.192.082.3.3 0 0 1-.14-.035l-2.754-1.653a.26.26 0 0 1-.156-.25q-.002-.174.156-.25l2.754-1.652a.3.3 0 0 1 .14-.035q.114 0 .192.082a.27.27 0 0 1 .082.195c0 .11-.043.188-.137.242l-2.371 1.422Zm5.805-1.172-2.75 1.653a.3.3 0 0 1-.14.035.24.24 0 0 1-.196-.082.26.26 0 0 1-.082-.195q0-.16.14-.243l2.368-1.418-2.368-1.421a.26.26 0 0 1-.14-.243q0-.112.082-.195a.28.28 0 0 1 .195-.078c.047 0 .094.008.137.035l2.754 1.649a.26.26 0 0 1 .16.25.26.26 0 0 1-.16.25Zm0 0"/><path fill="none" stroke="#2e186a" stroke-linecap="round" stroke-linejoin="round" stroke-width=".8260799999999999" d="m58.836 95.242-1.883-3.418M54.656 95.606h10.43"/><path fill="#2e186a" d="M63.645 106.73a.8.8 0 0 0-.313-.195.8.8 0 0 0-.715.09.8.8 0 0 0-.36.621.74.74 0 0 0 .06.367.8.8 0 0 0 .214.301.8.8 0 0 0 .324.172q.185.052.368.012a.8.8 0 0 0 .34-.153.808.808 0 0 0 .316-.645.75.75 0 0 0-.234-.57M63.07 105.523a.8.8 0 0 0 .36-.078.83.83 0 0 0 .437-.566.8.8 0 0 0-.008-.367.8.8 0 0 0-.172-.325.75.75 0 0 0-.3-.214.75.75 0 0 0-.36-.063.8.8 0 0 0-.351.106.8.8 0 0 0-.27.25.786.786 0 0 0-.094.71q.058.177.192.313a.74.74 0 0 0 .566.234M63.645 110.46a.85.85 0 0 0 .195-.312c.039-.12.055-.242.039-.367a.9.9 0 0 0-.129-.347.8.8 0 0 0-.621-.36.8.8 0 0 0-.367.059.8.8 0 0 0-.301.215.8.8 0 0 0-.172.324.799.799 0 0 0 .137.703.84.84 0 0 0 .285.238.8.8 0 0 0 .36.082.76.76 0 0 0 .574-.234m0 0"/><path fill="#2e186a" d="m66.113 98.098-1.828-2.38h-8.824l-1.832 2.38q-.269.34-.274.773v14.492q.023.756.684 1.137c.566.352 1.285.895 1.336 1.418h8.992c.051-.523.77-1.066 1.336-1.418q.662-.38.68-1.14V98.87q0-.434-.27-.773m-3.832 2.78.965-1.608q.044-.083.137-.09c.066.004.117.03.148.09l.965 1.609q.019.034.02.082a.14.14 0 0 1-.047.11.15.15 0 0 1-.114.05.17.17 0 0 1-.14-.082l-.824-1.379-.828 1.38a.16.16 0 0 1-.137.081.15.15 0 0 1-.114-.05.13.13 0 0 1-.046-.11.14.14 0 0 1 .015-.082m.067.606a.14.14 0 0 1 .093-.03.15.15 0 0 1 .114.046q.052.046.047.117.004.059-.043.106l-.059.058a.75.75 0 0 0-.238.57q-.012.318.21.536.061.051.137.05.105-.003.13-.101l.331-.992a.7.7 0 0 1 .145-.258.45.45 0 0 1 .34-.137q.205.001.351.149.31.316.293.761.005.528-.406.868a.12.12 0 0 1-.094.03c-.11 0-.16-.054-.16-.16a.13.13 0 0 1 .043-.109l.059-.058a.75.75 0 0 0 .238-.57.68.68 0 0 0-.211-.536.2.2 0 0 0-.137-.05q-.1.003-.129.101l-.332.992a.8.8 0 0 1-.136.258.45.45 0 0 1-.344.137.47.47 0 0 1-.348-.149.98.98 0 0 1-.297-.761q-.006-.528.403-.868m-.078 2.434c.125-.125.27-.219.437-.273q.25-.088.512-.051.263.034.484.18.217.146.352.374a1.15 1.15 0 0 1 .066 1 1.1 1.1 0 0 1-.3.418q-.198.178-.454.243-.252.07-.515.02a1.2 1.2 0 0 1-.47-.212 1.135 1.135 0 0 1-.441-.902 1.04 1.04 0 0 1 .329-.797m-.282 7.055a.15.15 0 0 1-.035-.176c.027-.067.078-.098.149-.102h.175a1.1 1.1 0 0 1-.273-.433 1.14 1.14 0 0 1-.059-.512 1.14 1.14 0 0 1 1.047-.992q.263-.018.508.082a1.1 1.1 0 0 1 .664.75q.072.258.02.515a1.15 1.15 0 0 1-.211.473q-.165.206-.399.324-.24.117-.504.118h-.965a.13.13 0 0 1-.117-.047m2.516.613-.961 1.605a.16.16 0 0 1-.148.09.15.15 0 0 1-.137-.09l-.965-1.605a.2.2 0 0 1-.02-.082q0-.066.047-.113a.14.14 0 0 1 .117-.047.15.15 0 0 1 .137.082l.824 1.375.829-1.375a.15.15 0 0 1 .136-.082q.16 0 .16.16a.13.13 0 0 1-.02.082m.625-3.2a.16.16 0 0 1-.113.048H63.07q-.263 0-.5-.118a1.1 1.1 0 0 1-.394-.324q-.165-.21-.211-.469a1.1 1.1 0 0 1 .015-.511 1.146 1.146 0 0 1 .66-.754q.24-.1.505-.082.263.018.492.148.228.129.375.352.145.216.18.48c.023.172.007.344-.051.508a1.1 1.1 0 0 1-.27.438l-.008.007h1.153q.066 0 .113.051a.14.14 0 0 1 .047.113.16.16 0 0 1-.047.114m0 0"/><path fill="none" stroke="#2e186a" stroke-linecap="round" stroke-linejoin="round" stroke-width=".8260799999999999" d="M100.254 57.113c.059-1.78.031-4.582-.601-5.804-1.004-1.946-.067-4.016 1.984-1.895 1.172 1.207 1.746 2.813 2.023 3.969M121.18 50.668q-.002.714-.274 1.375a3.6 3.6 0 0 1-1.945 1.941 3.58 3.58 0 0 1-2.746 0A3.58 3.58 0 0 1 114 50.668q-.001-.714.274-1.375a3.5 3.5 0 0 1 .777-1.164 3.6 3.6 0 0 1 2.539-1.05q.716-.002 1.371.273a3.6 3.6 0 0 1 1.164.777c.34.336.598.727.781 1.164q.272.66.274 1.375m0 0"/><g clip-path="url(#d)"><path fill="none" stroke="#2e186a" stroke-linecap="round" stroke-linejoin="round" stroke-width=".8260799999999999" d="M94.34 116.36c10.492-.782 12.578-36.38 12.941-37.594.73-2.403-1.558-2.965-1.257-4.864.3-1.902.066-2.753.066-2.753-4.922-.805-9.707-6.997-9.707-6.997s-.496.364-1.906 1.57c-1.41 1.204-2.985-.648-4.598 1.2-1.062 1.23-12.644 20.676-12.644 20.676"/></g><path fill="#2e186a" d="M106.45 73.844c.34-2.047.476-2.938.476-2.938-5.242-.808-10.653-7.418-10.653-7.418s-.535.39-2.05 1.703c-.614.532-1.239.528-1.899.461-.46 5.743 9.84 10.856 14.719 11.098-.313-1.379-.852-1.352-.594-2.906m0 0"/><path fill="none" stroke="#2e186a" stroke-linecap="round" stroke-linejoin="round" stroke-width=".8260799999999999" d="M70.418 84.336s6.211-5.36 9.813-1.984M94.23 68.477l10.403 6.047 5.207-12.31c5.023.009 5.004-2.722 3.95-2.815-1.052-.094-6.102.617-6.102.617s.164-.367 4.27-1.149c4.1-.777 3.331-3.066 2.448-3.129-.882-.062-7.406 1.575-7.406 1.575l5.606-2c1.996-.633 2.066-2.567 1.023-2.84-.687-.18-4.36.93-7.266 1.945 0 0 3.493-1.789 5.149-2.871s.5-2.496-.469-2.406-7.691 4.586-8.973 5.699c-1.28 1.113-7.84 13.637-7.84 13.637M87.457 101.371a3.552 3.552 0 0 1 1.363-.059q.388.053.758.2a3.584 3.584 0 0 1 1.77 5.23 3.4 3.4 0 0 1-.48.621 3.6 3.6 0 0 1-1.31.856q-.368.142-.761.195-.392.06-.785.024a3.5 3.5 0 0 1-.774-.145"/><path fill="#2e186a" d="M72.57 100.004v11.812q-.001.406.078.805a4.017 4.017 0 0 0 .617 1.488 4 4 0 0 0 1.141 1.141 4 4 0 0 0 1.489.617c.265.055.535.078.804.078h6.965c.273 0 .543-.023.809-.078q.398-.083.773-.234a4.2 4.2 0 0 0 1.34-.895 4.2 4.2 0 0 0 .516-.629 4 4 0 0 0 .378-.71q.159-.38.235-.778a4 4 0 0 0 .082-.805v-11.812Zm6.157 8.648q.14.083.14.243c0 .078-.027.14-.082.195a.26.26 0 0 1-.195.082.3.3 0 0 1-.137-.035l-2.754-1.653a.26.26 0 0 1-.156-.25q-.001-.174.156-.25l2.754-1.652a.3.3 0 0 1 .137-.035q.118 0 .195.082a.24.24 0 0 1 .082.195q.002.166-.137.242l-2.37 1.422Zm3.445-4.074-2.219 5.543a.3.3 0 0 1-.055.074.26.26 0 0 1-.199.086.275.275 0 0 1-.273-.277q0-.06.023-.117l2.215-5.54a.3.3 0 0 1 .059-.081.25.25 0 0 1 .195-.079.275.275 0 0 1 .277.274.3.3 0 0 1-.023.125Zm3.75 2.899-2.754 1.652a.3.3 0 0 1-.137.035.26.26 0 0 1-.195-.082.26.26 0 0 1-.082-.195q0-.16.14-.242l2.368-1.418-2.367-1.422a.26.26 0 0 1-.141-.243c0-.078.027-.14.082-.195a.27.27 0 0 1 .195-.082q.077 0 .14.035l2.75 1.653a.26.26 0 0 1 .161.25.26.26 0 0 1-.16.25Zm0 0"/><g clip-path="url(#e)"><path fill="none" stroke="#2e186a" stroke-linecap="round" stroke-linejoin="round" stroke-width=".8260799999999999" d="M.414 116.293h225.301"/></g><path fill="#2e186a" d="m117.54 57.637-.767-11.79-15.195.985.52 7.977c1.347-1.153 7.984-5.582 8.941-5.672.957-.086 2.125 1.324.469 2.406s-5.149 2.871-5.149 2.871c2.907-1.016 6.582-2.125 7.266-1.945 1.043.277.973 2.203-1.023 2.84l-5.606 2s6.524-1.633 7.406-1.57c.883.058 1.653 2.347-2.453 3.124-4.101.782-4.265 1.149-4.265 1.149s5.05-.711 6.101-.617c1.05.097 1.074 2.824-3.95 2.816l-.026.066 3.87-.25a4.3 4.3 0 0 0 .801-.129c.262-.07.512-.168.758-.285a4.3 4.3 0 0 0 .688-.425q.323-.251.594-.555.268-.304.472-.66a4.3 4.3 0 0 0 .52-1.524q.052-.404.027-.812m0 0"/></svg>