<svg xmlns="http://www.w3.org/2000/svg" width="1050" height="423" version="1.0" viewBox="0 0 787.5 317.25"><defs><clipPath id="a"><path d="M148 247h71v69.5h-71Zm0 0"/></clipPath><clipPath id="b"><path d="M.68 312h785.293v4H.68Zm0 0"/></clipPath></defs><path fill="#545454" d="M98.191 83.05c6.43-7.304 16.274-8.937 25.524-4.784 9.262 4.156 16.387 13.363 18.75 25.144l.234 1.195.078.407c1.957 9.71 3.84 14 7.832 18.293l.137.148c2.113 2.195 11.274 10.379 12.602 11.621q.222.199.351.473.131.27.145.57a1.48 1.48 0 0 1-.399 1.082 1.49 1.49 0 0 1-1.636.367 1.4 1.4 0 0 1-.493-.324l-1.28-1.168c-2.99-2.707-9.817-8.855-11.536-10.672l-.07-.07c-4.41-4.75-6.508-9.527-8.563-19.73a67 67 0 0 1-.25-1.27c-4.316-22.539-27.277-32.848-39.195-19.316-5.145 5.843-5.664 14.656-2.492 25.183 2.285 7.59 6.586 15.809 9.722 19.742l.141.176c1.543 1.899 2.21 5.27 2.973 13.121l.73 7.957.156 1.614c.223 2.265.446 4.293.692 6.293.668 5.78 1.691 11.5 3.074 17.152.219.863.445 1.719.68 2.559q.08.284.043.578-.034.297-.18.554a1.4 1.4 0 0 1-.375.438 1.46 1.46 0 0 1-1.098.308 1.47 1.47 0 0 1-1.254-1.078 104 104 0 0 1-.699-2.633 142.5 142.5 0 0 1-3.144-17.515l-.114-.938a289 289 0 0 1-.586-5.425l-.195-2.079c-.168-1.804-.535-5.855-.61-6.636l-.081-.856c-.684-7.054-1.317-10.308-2.317-11.539-3.394-4.164-7.972-12.867-10.406-20.937-3.434-11.41-2.86-21.23 3.11-28.004m0 0"/><path fill="#545454" d="M74.629 155.16c8.508-.762 17.562 3.074 24.215 10.758l.64.75c3.72 4.332 6.332 6.789 8.883 8.371 2.11 1.309 4.227 2.094 7.77 2.95l.511.12c1.29.29 7.665 1.7 10.278 2.34l1.082.27c4.879 1.222 9.914 2.691 15.668 4.617 8.527 2.844 16.543 8.539 24.156 16.75q.201.217.309.492.099.282.093.574c-.007.2-.05.387-.132.57a1.52 1.52 0 0 1-.84.774 1.46 1.46 0 0 1-1.14-.047q-.27-.125-.474-.344c-7.293-7.87-14.91-13.285-22.914-15.953-5.894-1.972-11.007-3.453-15.984-4.687l-1.336-.324c-3.148-.746-9.18-2.075-9.656-2.188-4.016-.953-6.473-1.844-8.961-3.39-2.961-1.836-5.875-4.614-10.012-9.477-12.375-14.559-33.015-12.715-35.957 1.816-1.293 6.274 1.957 12.86 8.582 19.215 4.778 4.578 11.27 8.805 15.133 10.387l.195.078c1.989.777 3.914 3.035 7.77 8.531l4.46 6.418.805 1.137c2.165 3.047 4.125 5.668 6.145 8.168 6.644 8.234 13.32 14.375 20.68 18.387 4.507 2.468 8.715 3.48 12.902 3.343 3.145-.101 5.922-.757 9.871-2.14l2.918-1.043.695-.242c.66-.227 1.227-.41 1.77-.57a14.1 14.1 0 0 1 4.824-.708c3.508.192 6.227 2.332 8.508 6.848q.14.27.164.562c.02.2-.004.395-.062.586q-.094.283-.286.512a1.49 1.49 0 0 1-1.027.52 1.5 1.5 0 0 1-.582-.078 1.4 1.4 0 0 1-.508-.293 1.6 1.6 0 0 1-.355-.47c-1.801-3.573-3.614-5.038-5.887-5.214l-.266-.016c-1.507-.07-2.273.082-6.125 1.422l-2.425.856c-4.407 1.562-7.516 2.32-11.13 2.441-4.722.152-9.456-.988-14.425-3.707-7.75-4.227-14.7-10.617-21.567-19.129-1.937-2.402-3.824-4.906-5.87-7.773l-.915-1.29-4.742-6.812-.469-.664c-3.05-4.316-4.777-6.309-5.902-6.793l-.059-.023c-4.203-1.66-11.16-6.164-16.293-11.086-7.289-6.989-10.98-14.469-9.44-21.953 1.636-8.086 8.183-13.391 16.714-14.149m0 0"/><path fill="#545454" d="M177.922 60.898c5.496-10.59 14.422-15.87 27.156-14.664 5.367.5 9.656 2.004 12.942 4.45q.234.175.386.433.154.253.196.547c.027.191.02.387-.032.578a1.43 1.43 0 0 1-.68.91 1.4 1.4 0 0 1-.546.196c-.196.027-.387.02-.578-.032a1.4 1.4 0 0 1-.524-.25c-2.816-2.097-6.59-3.418-11.441-3.87-11.488-1.09-19.285 3.523-24.238 13.07-4.008 7.73-5.985 18.261-6.52 31.406l-.02.527c-.148 3.93-.156 7.047-.078 12.055l.063 3.773c.07 4.97.02 7.059-.266 9.621l-.015.133a24.7 24.7 0 0 1-3.32 10.336 34 34 0 0 1-6.024 7.297l-.293.274c-4.86 4.535-4.758 9.64-.914 17.789l.387.804c.476.977.992 1.985 1.796 3.524l1.164 2.23a55 55 0 0 1 2.973 6.38c1.2 3.148 1.668 5.847 1.29 8.347l-.075.445c-.285 1.66-1.11 5.805-1.195 6.277a79.1 79.1 0 0 0-.938 24.125c1.297 12.106 5.145 25.653 12.2 41.102a1.5 1.5 0 0 1 .043 1.137 1.5 1.5 0 0 1-.305.492 1.5 1.5 0 0 1-1.04.472 1.454 1.454 0 0 1-1.066-.398 1.4 1.4 0 0 1-.336-.469c-7.183-15.73-11.12-29.586-12.449-42.023a81.7 81.7 0 0 1 .879-24.477l.133-.722c.218-1.145 1.062-5.41 1.21-6.403.278-1.851-.07-3.988-1.027-6.574l-.187-.496a58 58 0 0 0-2.973-6.281l-1.37-2.621a117 117 0 0 1-1.677-3.336c-2.039-4.27-3.101-7.633-3.195-10.871-.113-3.938 1.297-7.418 4.453-10.446l.188-.18a31.5 31.5 0 0 0 5.789-6.913 21.6 21.6 0 0 0 2.882-8.805l.07-.606c.255-2.355.302-4.39.235-9.168l-.078-4.863c-.059-4.168-.047-7.055.07-10.465l.024-.61c.52-13.792 2.566-24.882 6.87-33.187M217.129 250.809h-24.277a1.48 1.48 0 0 1-1.09-.473 1.5 1.5 0 0 1-.395-1.121c1.172-16.113 3.293-29.617 6.485-41.29a126 126 0 0 1 3.437-10.718 94 94 0 0 1 4.156-9.535 71 71 0 0 1 4.91-8.305 56.6 56.6 0 0 1 5.704-7.027q.43-.462 1.058-.461a1.44 1.44 0 0 1 1.063.43q.212.209.324.484.115.276.113.574v75.957a1.48 1.48 0 0 1-.437 1.051q-.206.21-.48.32a1.4 1.4 0 0 1-.571.114m-1.484-73.528-.063.078c-6.266 7.649-11.266 18.2-14.863 31.348-3.031 11.102-5.082 23.879-6.262 39.07l-.004.059h21.192Zm0 0"/><g clip-path="url(#a)"><path fill="#2e186a" d="M216.684 247.836a1.51 1.51 0 0 1 1.039.422 1.5 1.5 0 0 1 .449 1.023q.006.288-.094.563-.098.269-.297.484-.193.21-.457.34a1.5 1.5 0 0 1-.55.14H156.73a5.5 5.5 0 0 0-1.207.11 5.503 5.503 0 0 0-3.09 1.82 6 6 0 0 0-.68 1.008 5.5 5.5 0 0 0-.624 2.332c-.016.406.016.813.09 1.211l12.808 57.262q.066.282.02.57a1.4 1.4 0 0 1-.2.531q-.151.252-.386.422a1.5 1.5 0 0 1-.516.242c-.187.051-.375.059-.566.036a1.5 1.5 0 0 1-.543-.184 1.6 1.6 0 0 1-.43-.375 1.6 1.6 0 0 1-.258-.508l-.02-.086-12.78-57.12c-1.2-5.204 2.804-10.142 8.218-10.243Zm0 0"/></g><path fill="#2e186a" d="M595.328 315.816h-378.2a1.496 1.496 0 0 1-1.05-.434 1.5 1.5 0 0 1-.433-1.054V1.488a1.496 1.496 0 0 1 .434-1.055 1.5 1.5 0 0 1 1.05-.433h378.2a1.496 1.496 0 0 1 1.05.434q.21.209.32.484c.078.184.114.371.114.57v312.84c0 .2-.036.387-.114.57q-.11.275-.32.485a1.5 1.5 0 0 1-1.05.433M218.618 2.973v309.87H593.84V2.974Zm0 0"/><path fill="#2e186a" d="M453.375 269.836h-21.207a1.5 1.5 0 0 1-1.05-.434q-.212-.209-.325-.484a1.5 1.5 0 0 1-.113-.566v-33.098a1.5 1.5 0 0 1 .437-1.055 1.5 1.5 0 0 1 1.05-.434h21.208a1.496 1.496 0 0 1 1.05.434 1.5 1.5 0 0 1 .434 1.055v33.098q-.001.294-.113.566a1.5 1.5 0 0 1-.32.484 1.5 1.5 0 0 1-1.051.434m-19.723-33.098v30.125h18.235v-30.125ZM486.668 269.836h-21.207a1.497 1.497 0 0 1-1.05-.434 1.5 1.5 0 0 1-.434-1.05v-47.024a1.496 1.496 0 0 1 .434-1.05 1.5 1.5 0 0 1 1.05-.434h21.207c.2 0 .387.035.57.113.184.074.344.184.48.32q.212.21.325.485.112.271.113.566v47.024a1.48 1.48 0 0 1-.437 1.05 1.5 1.5 0 0 1-1.05.434m-19.719-47.02v44.047h18.235v-44.047ZM519.914 269.836h-21.203a1.5 1.5 0 0 1-1.055-.434 1.5 1.5 0 0 1-.433-1.05v-69.024a1.496 1.496 0 0 1 .434-1.05 1.5 1.5 0 0 1 1.054-.434h21.203a1.5 1.5 0 0 1 1.05.433q.212.21.325.485.112.271.113.566v69.024a1.48 1.48 0 0 1-.437 1.05 1.5 1.5 0 0 1-1.05.434m-19.719-69.02v66.047h18.235v-66.047Zm0 0"/><path fill="#545454" d="M531.957 180.305h21.203v88.047h-21.203ZM560.348 135.117a1.47 1.47 0 0 0-1.192-.347l-13.87 2.23a1.45 1.45 0 0 0-.54.2 1.5 1.5 0 0 0-.426.39q-.175.233-.246.52a1.5 1.5 0 0 0-.027.574 1.52 1.52 0 0 0 .598.953q.234.17.515.246.284.074.57.039l9.067-1.438-27.05 31.414-11.052-10.601a1.24 1.24 0 0 0-1.09-.399q-.634.01-1.039.497l-36.27 42.117-10.503-7.88a1.45 1.45 0 0 0-.984-.304q-.552.029-.95.402l-32.554 31.215a1.52 1.52 0 0 0-.45 1.032q-.009.291.098.566.105.272.305.484.45.452 1.09.446.586-.019 1.039-.395l31.66-30.375 10.652 7.977q.23.17.5.246c.184.047.367.066.555.047q.282-.028.535-.157.252-.125.445-.332l36.118-41.968 11.05 10.605q.445.464 1.09.395.634-.011 1.04-.496l28.886-33.543-.2 11.742q0 .298.11.574t.32.484a1.45 1.45 0 0 0 1.059.43c.195 0 .387-.039.566-.117q.275-.11.485-.32.207-.211.32-.48a1.4 1.4 0 0 0 .113-.571l.25-15.012a1.8 1.8 0 0 0-.593-1.09m0 0"/><path fill="#2e186a" d="M346.45 232.625c.195 0 .378.035.558.11.18.074.34.175.476.312q.211.2.329.465c.078.18.117.363.125.558a1.51 1.51 0 0 1-.391 1.047c-.129.14-.285.254-.457.34a1.5 1.5 0 0 1-.555.14h-91.254q-.288 0-.558-.105a1.5 1.5 0 0 1-.801-.781 1.5 1.5 0 0 1-.129-.555 1.474 1.474 0 0 1 .852-1.387 1.5 1.5 0 0 1 .55-.14l.086-.004ZM322.418 246.5q.29-.001.559.11.27.107.48.308.206.205.324.469c.078.175.121.363.125.554.004.196-.023.383-.094.563q-.098.272-.296.484a1.4 1.4 0 0 1-.457.34 1.5 1.5 0 0 1-.551.14l-.09.005h-67.137q-.288 0-.558-.11a1.4 1.4 0 0 1-.477-.312 1.4 1.4 0 0 1-.324-.465 1.5 1.5 0 0 1-.129-.555 1.52 1.52 0 0 1 .39-1.05q.199-.212.462-.336.257-.128.55-.145ZM300.867 262.059q.29 0 .559.105c.18.074.336.18.476.313.141.136.246.289.325.468.078.176.12.364.125.555a1.45 1.45 0 0 1-.387 1.047 1.5 1.5 0 0 1-.461.34 1.5 1.5 0 0 1-.55.14l-.087.004h-47.566q-.292.001-.559-.11a1.5 1.5 0 0 1-.804-.776 1.5 1.5 0 0 1-.125-.56 1.6 1.6 0 0 1 .093-.562q.099-.269.297-.484.193-.21.457-.34a1.5 1.5 0 0 1 .55-.14ZM396.293 232.625q.293-.001.562.11a1.488 1.488 0 0 1 .926 1.336q.012.286-.094.558a1.4 1.4 0 0 1-.296.488q-.195.21-.457.34a1.5 1.5 0 0 1-.551.14h-39.43q-.288 0-.558-.105a1.5 1.5 0 0 1-.801-.781 1.5 1.5 0 0 1-.13-.555 1.474 1.474 0 0 1 .852-1.387 1.5 1.5 0 0 1 .551-.14l.086-.004Zm0 0"/><path fill="#545454" d="m298.535 203.79 10.508 9.91v-19.97ZM283.426 214.195l10.8-10.355-10.8-10.16ZM336.984 190.215h-24.277l12.238 11.543ZM296.355 205.871l-12.285 11.84h24.871ZM312.016 214.195l10.8-10.355-10.8-10.16ZM253.3 192.293v23.34l12.286-11.793ZM267.77 205.871l-12.29 11.84h24.872ZM279.758 190.215H255.48l12.29 11.543ZM337.629 213.7v-19.97l-10.504 10.06ZM269.95 203.79l10.503 9.91v-19.97ZM324.996 205.871l-12.289 11.84h24.875ZM308.348 190.215H284.07l12.285 11.543ZM366.219 190.215h-25.617v27.496h25.617ZM396.293 190.215h-27.102v27.496h27.102Zm0 0"/><path fill="#545454" d="M337.531 217.71c.051.052.051.052.098.052v-.051Zm0 0"/><path fill="#2e186a" d="M539.438 106.281h-15.36a1.5 1.5 0 0 1-.57-.113 1.534 1.534 0 0 1-.805-.805 1.5 1.5 0 0 1-.113-.57v-15.36c0-.199.039-.386.113-.57a1.53 1.53 0 0 1 .805-.804 1.5 1.5 0 0 1 .57-.114h15.36q.293.001.57.114a1.53 1.53 0 0 1 .804.804c.075.184.11.371.11.57v15.36c0 .2-.035.387-.11.57a1.53 1.53 0 0 1-.804.805 1.5 1.5 0 0 1-.57.113m-13.875-15.363v12.39h12.386v-12.39ZM542.46 80.762h-58.714c-.2 0-.387-.035-.57-.114a1.5 1.5 0 0 1-.48-.32q-.21-.209-.325-.484a1.5 1.5 0 0 1-.113-.567V61.586a1.48 1.48 0 0 1 .437-1.05q.21-.209.48-.321a1.5 1.5 0 0 1 .571-.113h58.715a1.496 1.496 0 0 1 1.05.434 1.5 1.5 0 0 1 .434 1.05v17.691q.002.296-.113.567a1.5 1.5 0 0 1-.32.484 1.5 1.5 0 0 1-1.051.434m-57.23-17.688V77.79h55.743V63.074ZM513.625 103.309a1.45 1.45 0 0 1 1.035.418q.206.199.324.468.118.263.125.555.011.287-.09.563c-.07.18-.167.343-.3.484a1.4 1.4 0 0 1-.457.34 1.5 1.5 0 0 1-.551.14l-.086.004h-29.879q-.291-.002-.558-.11a1.4 1.4 0 0 1-.477-.312q-.21-.199-.328-.468a1.5 1.5 0 0 1-.031-1.118c.066-.18.168-.343.296-.484a1.6 1.6 0 0 1 .457-.34 1.5 1.5 0 0 1 .555-.14ZM513.625 96.023q.288 0 .559.11a1.47 1.47 0 0 1 .925 1.332q.011.293-.09.562a1.5 1.5 0 0 1-.757.825c-.176.082-.36.132-.551.14l-.086.004h-29.879q-.291.001-.558-.11-.27-.107-.477-.308a1.5 1.5 0 0 1-.328-.469 1.5 1.5 0 0 1-.125-.554 1.52 1.52 0 0 1 .39-1.051q.2-.212.457-.336a1.4 1.4 0 0 1 .555-.14l.086-.005ZM513.625 88.79q.288-.001.559.108a1.47 1.47 0 0 1 .925 1.332q.011.293-.09.563a1.5 1.5 0 0 1-.757.824q-.264.13-.551.14l-.086.005h-29.879q-.291.001-.558-.11-.27-.107-.477-.308a1.5 1.5 0 0 1-.328-.469 1.5 1.5 0 0 1-.125-.555 1.52 1.52 0 0 1 .39-1.05q.2-.212.457-.336a1.5 1.5 0 0 1 .555-.141l.086-.004ZM517.191 144.828q.29-.001.559.11.27.107.477.308.208.205.324.469.116.265.129.555a1.52 1.52 0 0 1-.39 1.05 1.5 1.5 0 0 1-1.013.477l-.086.004h-81.605q-.29.001-.559-.11-.271-.107-.476-.308a1.5 1.5 0 0 1-.328-.469 1.5 1.5 0 0 1-.125-.555 1.52 1.52 0 0 1 .39-1.05 1.5 1.5 0 0 1 1.012-.477l.086-.004ZM483.746 151.813q.288.002.559.109.271.11.476.312.21.201.328.465c.079.18.118.363.125.559q.006.287-.093.562-.102.269-.297.485-.2.21-.457.34a1.5 1.5 0 0 1-.555.14h-48.246a1.5 1.5 0 0 1-.559-.105 1.51 1.51 0 0 1-.93-1.336 1.474 1.474 0 0 1 .39-1.047 1.4 1.4 0 0 1 .458-.34 1.5 1.5 0 0 1 .555-.14l.086-.005Zm0 0"/><path fill="#545454" d="m351.852 104 55.988-28.39c2.226 4.402 3.918 9 5.062 13.796A62.7 62.7 0 0 1 414.63 104c0 34.438-28.344 62.777-62.777 62.777q-3.533 0-7.036-.394a62 62 0 0 1-6.945-1.18 64 64 0 0 1-6.77-1.953 63 63 0 0 1-6.511-2.7 63 63 0 0 1-6.164-3.413 62.333 62.333 0 0 1-10.988-8.785 62 62 0 0 1-4.688-5.258Zm0 0"/><path fill="#2e186a" d="M451.836 54.602q.294-.001.559.109c.18.07.34.176.48.309q.206.204.324.468c.078.176.121.364.125.555q.012.293-.094.562a1.4 1.4 0 0 1-.296.489q-.195.212-.457.336c-.176.082-.36.133-.551.14l-.09.004H399.96q-.29.001-.559-.11-.271-.107-.476-.308a1.5 1.5 0 0 1-.328-.468 1.5 1.5 0 0 1-.125-.555 1.52 1.52 0 0 1 .39-1.051q.2-.212.457-.336c.176-.082.36-.133.555-.14l.086-.004ZM451.836 61.586a1.5 1.5 0 0 1 1.363.89q.118.263.125.555.012.288-.094.563-.099.271-.296.484a1.46 1.46 0 0 1-1.008.48H424.19a1.45 1.45 0 0 1-1.039-.417 1.5 1.5 0 0 1-.324-.47 1.4 1.4 0 0 1-.125-.554 1.4 1.4 0 0 1 .094-.562q.098-.272.297-.485.193-.216.457-.34a1.5 1.5 0 0 1 .55-.14l.09-.004ZM451.836 68.625q.294 0 .559.105.27.113.48.313.206.2.324.469.118.263.125.554.012.288-.094.563-.099.272-.296.484a1.4 1.4 0 0 1-.457.34 1.5 1.5 0 0 1-.551.14l-.09.005h-18.379a1.483 1.483 0 0 1-1.363-.887 1.5 1.5 0 0 1-.125-.559 1.4 1.4 0 0 1 .094-.562q.098-.269.296-.485.195-.21.457-.34a1.5 1.5 0 0 1 .551-.14ZM453.375 110.242a1.483 1.483 0 0 1 1.36.887c.077.18.12.363.124.558q.011.288-.09.563a1.53 1.53 0 0 1-.757.824 1.5 1.5 0 0 1-.551.14h-67.027q-.29 0-.559-.105a1.5 1.5 0 0 1-.93-1.336 1.474 1.474 0 0 1 .852-1.387 1.5 1.5 0 0 1 .55-.14l.087-.004ZM453.375 115.742q.288-.001.559.11a1.48 1.48 0 0 1 .8.777c.079.18.121.363.125.558q.011.288-.09.563a1.53 1.53 0 0 1-.757.824 1.5 1.5 0 0 1-.551.14h-12.625q-.288 0-.559-.105a1.504 1.504 0 0 1-.926-1.336 1.44 1.44 0 0 1 .391-1.046q.194-.217.457-.34a1.5 1.5 0 0 1 .551-.14l.086-.005ZM313.797 48.805q.291-.001.558.11.27.107.48.308.207.205.325.468c.078.176.117.364.125.555a1.52 1.52 0 0 1-.39 1.05q-.195.214-.457.337a1.5 1.5 0 0 1-.551.14l-.09.004H273.91q-.288.001-.558-.109a1.47 1.47 0 0 1-.926-1.332 1.4 1.4 0 0 1 .09-.563 1.5 1.5 0 0 1 .757-.824q.264-.13.551-.14l.086-.004ZM281.89 54.453q.289-.001.56.11a1.47 1.47 0 0 1 .925 1.332q.011.292-.09.562a1.5 1.5 0 0 1-.758.824 1.5 1.5 0 0 1-.55.14l-.086.005h-7.98q-.289.001-.56-.11a1.47 1.47 0 0 1-.925-1.332 1.4 1.4 0 0 1 .09-.562 1.5 1.5 0 0 1 .757-.824q.264-.129.551-.141l.086-.004Zm0 0"/><path fill="#545454" d="M292.84 145.77q-.72 0-1.164-.563a61.4 61.4 0 0 1-5.672-8.473 61.4 61.4 0 0 1-4.195-9.289 62 62 0 0 1-2.598-9.86 61.4 61.4 0 0 1-.938-10.151 1.4 1.4 0 0 1 .106-.57q.112-.272.316-.485a1.485 1.485 0 0 1 1.047-.445l60.399-.645h.02c.316-.004.6.09.862.273q.387.277.54.723.162.45.03.906-.136.458-.511.75l-47.32 37.508a1.44 1.44 0 0 1-.922.32m42.992-37.461-54.55.582.007.218q.165 4.44 1.004 8.805a58.4 58.4 0 0 0 2.324 8.55 58.3 58.3 0 0 0 8.363 15.567l.118.153ZM282.336 103.703a1.5 1.5 0 0 1-.57-.113 1.4 1.4 0 0 1-.48-.324 1.4 1.4 0 0 1-.325-.48 1.5 1.5 0 0 1-.113-.571v-.793a61.2 61.2 0 0 1 4.164-22.383c.11-.289.293-.516.547-.691a1.46 1.46 0 0 1 1.375-.16l56.289 21.847q.498.194.761.66.263.463.168.993-.099.526-.504.87-.411.346-.945.352l-60.348.793Zm4.93-22.2-.164.462a58.6 58.6 0 0 0-3.274 18.453v.293l51.18-.672ZM354.121 97.168q-.4 0-.746-.207a1.5 1.5 0 0 1-.543-.547c-.133-.23-.2-.473-.2-.738q0-.394.2-.735l29.781-52.37a1.47 1.47 0 0 1 .899-.7c.187-.055.383-.066.578-.043q.293.037.55.184a61 61 0 0 1 14.368 11.254 60.7 60.7 0 0 1 10.414 14.949q.13.265.148.558.02.293-.074.575-.097.275-.289.5a1.5 1.5 0 0 1-.457.355l-53.957 26.805a1.5 1.5 0 0 1-.672.16m30.336-51.82L357.828 92.18l48.254-23.973-.094-.176a58.2 58.2 0 0 0-9.148-12.738 58 58 0 0 0-12.207-9.84Zm0 0"/><path fill="#2e186a" d="M376.973 44.691a60.2 60.2 0 0 0-14.278-5.894 60 60 0 0 0-15.304-2.082h-.993q-2.237.021-4.468.207a59 59 0 0 0-4.446.543 60 60 0 0 0-4.39.867 59 59 0 0 0-4.317 1.191 59.4 59.4 0 0 0-8.308 3.32 60.7 60.7 0 0 0-11.313 7.192 60.5 60.5 0 0 0-6.539 6.11 62 62 0 0 0-2.91 3.402 60.405 60.405 0 0 0-7.113 11.363 61 61 0 0 0-1.785 4.106l56.187 22.046ZM291.004 115.941q.293 0 .562.11a1.47 1.47 0 0 1 .926 1.332q.012.293-.094.562a1.4 1.4 0 0 1-.296.489q-.195.212-.457.336-.264.128-.551.14l-.09.004H251.12q-.294.001-.559-.11-.27-.107-.48-.308a1.6 1.6 0 0 1-.324-.469 1.4 1.4 0 0 1-.125-.554 1.45 1.45 0 0 1 .094-.563q.099-.273.296-.488.195-.212.457-.336c.176-.082.36-.133.551-.14l.09-.005ZM265.54 121.59q.286-.001.558.11.271.107.476.308.209.205.324.469c.079.175.122.363.13.554a1.52 1.52 0 0 1-.391 1.051q-.198.212-.461.336a1.3 1.3 0 0 1-.551.14l-.086.004h-14.418q-.294.001-.559-.109c-.18-.07-.34-.176-.48-.308a1.6 1.6 0 0 1-.324-.47 1.4 1.4 0 0 1-.125-.554 1.45 1.45 0 0 1 .094-.562 1.444 1.444 0 0 1 .754-.824c.175-.083.359-.133.55-.141l.09-.004ZM553.465 287.379q.294-.017.57.082a1.48 1.48 0 0 1 .844.754q.13.263.148.555a1.52 1.52 0 0 1-.363 1.07 1.5 1.5 0 0 1-.457.355q-.263.129-.555.153c-3.187.199-6.355.566-9.504 1.09l-4.191.738-1.816.328q-.69.123-1.332.246l-.641.121c-4.621.879-7.941 1.656-9.875 2.367q-.54.194-1.05.461-.09.053-.153.094l-.059.039c-.289.469-.199.719.457 1.117l.086.051c1.063.625 2.89.996 4.793.93q.299-.012.574.093c.184.067.348.172.493.305q.216.201.34.473a1.483 1.483 0 0 1-.739 1.969q-.269.122-.566.132c-2.422.082-4.801-.398-6.403-1.34-2.12-1.246-2.851-3.343-1.48-5.421.469-.711 1.328-1.192 2.676-1.692l.308-.11a74 74 0 0 1 9.383-2.265l1.305-.246c.762-.144 1.554-.289 2.418-.445l4.219-.746a97 97 0 0 1 10.57-1.258m0 0"/><path fill="#2e186a" d="M544.8 315.86c-2.077 0-3.702-.317-4.835-.946a3.2 3.2 0 0 1-1.3-1.148 3.17 3.17 0 0 1-.513-1.657l-.004-.12c0-.212.016-.426.055-.634l.016-.09-.14-.003a9.5 9.5 0 0 1-3.88-1.043 4.52 4.52 0 0 1-2.281-2.207l-.035-.098a2.21 2.21 0 0 1 .14-1.64l.016-.04-.098.012q-.908.118-1.824.125a8 8 0 0 1-1.414-.117l-.129-.027a3.06 3.06 0 0 1-2.258-1.578c-.449-.93-.328-2.176.34-3.508.696-1.418 3.875-3.645 10.004-7l.922-.5c4.215-2.266 8.336-4.223 10.016-4.758l.293-.09c1.37-.383 5.78-1.148 13.484-2.34l1.648-.254c2.079-.316 4.309-.652 6.637-1l5.922-.87 2.79-.407c.362-.05.698.02 1.007.219q.467.292.629.82l.023.086 6.985 28.933a1.5 1.5 0 0 1-.25 1.235c-.133.176-.293.32-.489.422a1.5 1.5 0 0 1-.62.18H546.18l-.168.011q-.635.03-1.211.031m10.438-13.743q.247 0 .489.051l.043.008q.498.116.82.508.323.392.336.902c.011.34-.086.644-.285.922a1.43 1.43 0 0 1-.793.547l-.43.129-.793.238c-.398.117-.758.23-1.105.34l-.293.093c-.461.145-.903.29-1.317.426l-.508.172-1.613.656-3.41 1.403c-1.031.418-1.695.68-2.363.93l-.266.097c-1.465.52-2.633 1.75-2.629 2.426 0 .144.102.281.563.484a8.1 8.1 0 0 0 3.046.446q.516-.001 1.079-.032l.226-.011.09-.004h37.55l-6.222-25.79-3.45.505-3.905.578c-1.77.261-3.332.496-4.774.714l-4.633.715c-6.668 1.04-10.812 1.758-11.98 2.078l-.098.032c-1.953.558-6.793 3.004-10.722 5.18-3.688 2.042-8.149 4.734-8.57 5.597q-.178.335-.278.7l-.02.077v.04l.075.023.105.023q.449.09.91.078a23.3 23.3 0 0 0 4.89-.746l.579-.136.027-.02a34 34 0 0 1 4.446-2.668l.203-.105a70 70 0 0 1 2.894-1.371 116 116 0 0 1 6-2.461l.602-.227q.423-.158.848-.312l.68-.247.605-.214c.18-.067.37-.094.562-.082q.293.012.555.136c.176.078.332.192.46.332.134.145.235.305.306.489a1.52 1.52 0 0 1-.028 1.117q-.118.269-.324.472a1.6 1.6 0 0 1-.477.313l-.804.289-.516.184q-.71.263-1.414.527a113 113 0 0 0-5.84 2.398c-1.008.45-1.941.891-2.77 1.313a27.7 27.7 0 0 0-5.519 3.547 8.7 8.7 0 0 0-1.098 1.11l-.058.077.094.075q.627.457 1.355.734a5.8 5.8 0 0 0 2.082.406 4.3 4.3 0 0 0 1.434-.234l.035-.012.125-.074a40.7 40.7 0 0 1 6.008-2.793l.324-.125c1.012-.39 2.11-.785 3.258-1.18l.703-.238.691-.277c2.403-.957 3.465-1.278 4.207-1.278m0 0"/><path fill="#2e186a" d="M697.941 207.207a33.5 33.5 0 0 0-2.488-13.871 33.25 33.25 0 0 0-4.781-8.129 33.4 33.4 0 0 0-10.914-8.918l-18.68-10.059-2.031 9.22q-.198.89-.485 1.757a18.6 18.6 0 0 1-2.433 4.875q-.527.745-1.117 1.438-.598.697-1.254 1.324-.662.633-1.375 1.195-.72.563-1.488 1.055t-1.582.902q-.814.415-1.665.742-.85.333-1.73.578-.877.247-1.777.407-.897.158-1.805.23c-.61.047-1.215.063-1.824.05a20 20 0 0 1-1.817-.128 20 20 0 0 1-1.797-.305l-2.43-.547a20 20 0 0 1-1.757-.48 18.606 18.606 0 0 1-3.332-1.465q-.795-.45-1.543-.973a18 18 0 0 1-1.438-1.117 18.207 18.207 0 0 1-2.52-2.629 18.189 18.189 0 0 1-1.957-3.07 19 19 0 0 1-.745-1.664 19 19 0 0 1-.98-3.504 19 19 0 0 1-.231-1.809 19 19 0 0 1-.05-1.82q.023-.914.128-1.82a20 20 0 0 1 .305-1.797l3.12-14.02c-3.566-2.476-6.39-5.847-7.726-10.207-.101-.296-.148-.593-.25-.843l-18.629-10.008-.05 144.531 50.539-10.355-2.426-33.942a1.4 1.4 0 0 1 .082-.57q.094-.275.289-.496.198-.218.46-.348.264-.13.556-.148a1.48 1.48 0 0 1 1.07.36c.148.124.27.276.355.448q.136.263.16.555l2.528 35.23q.017.271-.059.536-.077.258-.242.48a1.5 1.5 0 0 1-.89.57l-52.423 10.75v.399l-28.687 5.25c5.648 1.09 11.89 29.086 11.89 29.086H681.79a17.7 17.7 0 0 0 3.504-.352 17 17 0 0 0 1.71-.437 18 18 0 0 0 1.657-.598q.815-.344 1.59-.766a17.699 17.699 0 0 0 6.426-5.914q.48-.739.89-1.52a17.874 17.874 0 0 0 1.715-4.988q.159-.868.235-1.75c.047-.585.07-1.171.058-1.761Zm0 0"/><path fill="#2e186a" d="M663.883 144.918q.063-.282.226-.516a1.5 1.5 0 0 1 .922-.613 1.477 1.477 0 0 1 1.504.582c.113.152.192.324.238.508q.071.28.032.566l-.012.086-6.348 30.239a19 19 0 0 1-.511 1.878 20.16 20.16 0 0 1-2.59 5.219c-.371.535-.77 1.047-1.188 1.543a19 19 0 0 1-1.332 1.422q-.699.68-1.46 1.29a20.5 20.5 0 0 1-3.266 2.116 20 20 0 0 1-3.61 1.45q-.939.273-1.894.453a20.1 20.1 0 0 1-7.746-.051l-.325-.07-2.43-.547a19.6 19.6 0 0 1-3.695-1.207 19 19 0 0 1-1.746-.864 23 23 0 0 1-1.652-1.03 21 21 0 0 1-1.543-1.188 21 21 0 0 1-1.422-1.332 20 20 0 0 1-1.289-1.461 20.1 20.1 0 0 1-3.566-6.875 20.105 20.105 0 0 1-.402-9.64l.07-.325 3.12-14.02c.044-.191.118-.363.231-.523.11-.16.242-.293.406-.399.16-.105.336-.18.528-.214q.282-.059.57-.004.282.058.527.214.24.157.41.395.166.239.231.52.064.284.016.57l-.016.086-3.121 14.023c-.121.54-.21 1.086-.277 1.633a16.8 16.8 0 0 0-.078 3.316q.06.828.203 1.645.141.82.359 1.621.221.802.52 1.574.294.781.664 1.52.375.745.812 1.449a17 17 0 0 0 2.024 2.625 17.5 17.5 0 0 0 2.492 2.188q.675.48 1.39.898a17.6 17.6 0 0 0 3.016 1.379q.785.27 1.594.465l.277.062 2.426.543a16.5 16.5 0 0 0 3.289.399 16.7 16.7 0 0 0 3.3-.243 18 18 0 0 0 1.622-.359q.798-.222 1.574-.516.774-.298 1.52-.668a17 17 0 0 0 1.445-.808q.703-.441 1.363-.945.658-.511 1.262-1.075a17.5 17.5 0 0 0 2.187-2.488q.481-.674.899-1.394.42-.717.765-1.473c.23-.5.434-1.016.614-1.54q.273-.78.465-1.589l.066-.273Zm0 0"/><path fill="#2e186a" d="M640.828 159.555a34.2 34.2 0 0 1-12.793-2.504 26.2 26.2 0 0 1-8.734-5.64 19.7 19.7 0 0 1-5.078-8.325 36 36 0 0 1-1.418-10.352 72.5 72.5 0 0 1 1.672-15.164 85 85 0 0 1 1.28-5.34l.126-.453.12-.422.134-.453v-.007l.008-.028a169 169 0 0 1 6.078-17.23 133 133 0 0 1 7.765-15.797l.328-.559.141-.23c1.8-3.102 4.27-5.528 7.395-7.281a19.8 19.8 0 0 1 9.718-2.301q1.484 0 2.961.16a37.3 37.3 0 0 1 9.149 2.246 43 43 0 0 1 4.61 2.027l.503.266a46 46 0 0 1 8.965 6.121 34 34 0 0 1 6.219 7.234 30.6 30.6 0 0 1 3.64 8.204 34.6 34.6 0 0 1 1.223 9.023 43 43 0 0 1-1.934 12.867c-.43 1.406-.91 2.77-1.437 4.047a26 26 0 0 1-.817 1.816l-.078.16-1.36 2.56q-.281.525-.581 1.09l-.895 1.655a520 520 0 0 1-4.87 8.793c-.22.38-.395.688-.556.969l-.714 1.246c-3.239 5.59-5.547 9.176-7.059 10.961l-.164.188c-2.273 2.668-4.34 4.761-7.031 6.304-2.383 1.364-5.313 2.36-10.121 3.43l-.598.129q-2.866.605-5.797.59m-21.871-47.868c-.27 1.036-.98 3.778-1.457 5.958l-.082.39-.148.715a69 69 0 0 0-1.493 13.965 33.1 33.1 0 0 0 1.285 9.496c1.649 5.348 5.833 9.527 12.098 12.086a31.3 31.3 0 0 0 11.668 2.285 24.4 24.4 0 0 0 5.168-.523c8.785-1.91 11.324-3.293 15.969-8.715l.387-.45c1.406-1.695 3.71-5.304 6.843-10.73l.54-.937.546-.961a480 480 0 0 0 5.324-9.633l.207-.383c.41-.758.793-1.48 1.145-2.14l.922-1.735.148-.297.114-.238.172-.367c.085-.2.164-.375.238-.547l.168-.395a42 42 0 0 0 1.336-3.777 40 40 0 0 0 1.808-11.98c-.093-12.11-6.308-21.528-18.468-27.985a39 39 0 0 0-4.762-2.129 34.4 34.4 0 0 0-8.414-2.074 25 25 0 0 0-2.653-.145c-6.46 0-11.402 2.809-14.695 8.356l-.32.543c-5.258 9.02-10.074 20.515-13.551 32.363l-.047-.016Zm0 0"/><path fill="#2e186a" d="M617.574 111.234c2.922-9.91 7.582-22.445 14.024-33.246.285-.5.597-.976.941-1.437-5.203-4.063-13.676 4.312-19.523 21.601-3.024 8.922-11.246 13.43-11.246 13.43 6.293 5.5 11.988 3.121 15.707 0 .046-.2.046-.348.097-.348M630.86 104.988c.07-.183.171-.34.308-.48q.2-.21.465-.328.264-.122.554-.133c.192-.004.38.023.563.09q.274.098.488.297.217.194.34.453.128.264.145.55a1.5 1.5 0 0 1-.07.567l-.032.082-6.125 15.379 4.07 1.504q.265.1.477.289.21.193.34.445a1.52 1.52 0 0 1 .09 1.094l-.028.082q-.097.27-.289.48-.187.212-.445.336a1.4 1.4 0 0 1-.535.153 1.4 1.4 0 0 1-.559-.063l-.082-.027-5.5-2.031a1.46 1.46 0 0 1-.824-.75 1.48 1.48 0 0 1-.07-1.11l.027-.086ZM627.234 101.184q.316.136.528.453c.14.207.234.465.285.761q.072.452-.004.961-.076.515-.29 1.012-.216.497-.53.906a3.2 3.2 0 0 1-.696.664q-.375.258-.75.32-.375.065-.691-.07a1.2 1.2 0 0 1-.527-.453 1.95 1.95 0 0 1-.286-.761q-.07-.452.004-.961c.051-.344.145-.68.29-1.012.14-.332.32-.633.53-.906q.322-.41.696-.664.375-.258.75-.32.375-.065.691.07M641.938 107.93c.222.047.425.164.601.343q.264.274.422.7c.105.285.164.597.176.945q.023.514-.094 1.047a4 4 0 0 1-.356.988 3 3 0 0 1-.558.781q-.318.323-.676.457-.358.135-.691.059a1.2 1.2 0 0 1-.606-.344 2 2 0 0 1-.422-.699 3.2 3.2 0 0 1-.175-.945q-.018-.515.097-1.047.118-.527.352-.988a3.1 3.1 0 0 1 .558-.782 1.9 1.9 0 0 1 .676-.457q.356-.136.696-.058M647.23 99.844q.06-.288.223-.535.167-.246.414-.41a1.44 1.44 0 0 1 1.113-.22 9.2 9.2 0 0 1 2.95 1.087 9.3 9.3 0 0 1 2.418 2.004 9.7 9.7 0 0 1 1.457 2.273c.172.363.308.738.418 1.121a1.48 1.48 0 0 1-.52 1.54 1.465 1.465 0 0 1-1.07.313 1.48 1.48 0 0 1-.988-.525 1.5 1.5 0 0 1-.274-.5l-.047-.156a6.667 6.667 0 0 0-1.23-2.129 6.16 6.16 0 0 0-3.696-2.113 1.5 1.5 0 0 1-.535-.223q-.245-.165-.41-.41a1.5 1.5 0 0 1-.223-1.117m0 0"/><path fill="#2e186a" d="M627.7 89.066c1.777-.129 3.57.473 5.316 1.532q1.107.65 2.062 1.507a1.46 1.46 0 0 1 .469 1.028q.012.292-.094.566a1.44 1.44 0 0 1-.762.832 1.46 1.46 0 0 1-1.129.055 1.4 1.4 0 0 1-.496-.293l-.058-.055a14 14 0 0 0-.348-.285q-.567-.441-1.18-.812a6.2 6.2 0 0 0-3.566-1.11 2.87 2.87 0 0 0-1.371.457l-.125.086a1.46 1.46 0 0 1-1.106.246 1.5 1.5 0 0 1-.539-.203 1.49 1.49 0 0 1-.086-2.46 5.74 5.74 0 0 1 3.012-1.09m0 0"/><path fill="#545454" d="m712.457 111.73-16.797-8.523c2.133-12.484.793-31.809-22.64-42.71-36.668-17.044-50.043 19.671-50.043 19.671l83.98 42.363q.534.27 1.113.43c.383.105.774.176 1.172.203q.599.047 1.192-.027a6 6 0 0 0 1.164-.258 6 6 0 0 0 1.09-.477 6 6 0 0 0 .976-.683 5.992 5.992 0 0 0 1.469-1.863 5.97 5.97 0 0 0 .62-3.465 5.97 5.97 0 0 0-2.29-4.031 6 6 0 0 0-1.006-.63m0 0"/><path fill="#2e186a" d="M640.602 131.867q.221.198.355.461.13.263.148.563.02.292-.074.574c-.066.187-.16.351-.293.5a6 6 0 0 1-.539.527 9.5 9.5 0 0 1-1.398 1.004c-3.153 1.871-7.137 2.11-11.703-.246a1.5 1.5 0 0 1-.453-.363 1.507 1.507 0 0 1-.348-1.082 1.466 1.466 0 0 1 .523-1.012q.228-.194.508-.281c.188-.063.379-.082.578-.067q.296.024.555.16c3.625 1.872 6.523 1.7 8.82.336q.516-.304.961-.691l.125-.11.137-.136q.195-.223.46-.352a1.47 1.47 0 0 1 1.638.215M693.73 115.844 658.3 97.957c-4.109 12.832-9.265 38.547 12.684 45.336 0 0 17.145 5.695 22.102.047 0 0-11.793-8.621-9.117-15.707 0 0 12.039 17.84 26.21 8.375-.05 0-16.75-5.352-16.449-20.164m0 0"/><g clip-path="url(#b)"><path fill="#2e186a" d="M784.648 312.793q.292-.001.559.11c.18.074.34.175.477.312q.21.2.328.465c.078.18.117.363.125.558q.005.288-.094.563c-.066.18-.168.34-.297.484-.129.14-.285.254-.457.34a1.5 1.5 0 0 1-.555.14H1.996a1.5 1.5 0 0 1-.562-.105 1.6 1.6 0 0 1-.477-.312 1.5 1.5 0 0 1-.45-1.024 1.4 1.4 0 0 1 .095-.562q.098-.272.296-.485.195-.216.457-.34a1.5 1.5 0 0 1 .551-.14l.09-.004Zm0 0"/></g></svg>