<svg xmlns="http://www.w3.org/2000/svg" width="302" height="141" version="1.0" viewBox="0 0 226.5 105.75"><defs><clipPath id="a"><path d="M45 66h10v39.363H45Zm0 0"/></clipPath><clipPath id="b"><path d="M26 66h10v39.363H26Zm0 0"/></clipPath><clipPath id="c"><path d="M75 93h8v12.363h-8Zm0 0"/></clipPath><clipPath id="d"><path d="M84 53h32v52.363H84Zm0 0"/></clipPath><clipPath id="e"><path d="M177 70h1v35.363h-1Zm0 0"/></clipPath><clipPath id="f"><path d="M.02 104h225.964v1.363H.02Zm0 0"/></clipPath></defs><path fill="#5d21d1" d="M45.29 66.262v38.699h-9.685v-38.7Zm0 0"/><path fill="#fff" d="M42.79 69.559v18.02h-5.2v-18.02Zm0 0"/><path fill="#545454" d="M42.79 88.332v1.688h-5.2v-1.688Zm0 0"/><path fill="none" stroke="#fff" stroke-linecap="round" stroke-linejoin="round" stroke-width=".8008200000000001" d="M41.914 98.313q-.001.364-.137.699a1.8 1.8 0 0 1-.398.594 1.7 1.7 0 0 1-.59.394q-.335.14-.699.14t-.7-.14a1.8 1.8 0 0 1-.593-.394 1.9 1.9 0 0 1-.395-.594 1.8 1.8 0 0 1-.136-.7q-.002-.359.136-.695.142-.337.395-.593.259-.259.594-.395.335-.14.699-.14t.7.14q.335.136.589.395a1.8 1.8 0 0 1 .535 1.289m0 0"/><path fill="none" stroke="#fe7624" stroke-linecap="round" stroke-linejoin="round" stroke-width=".8008200000000001" d="M42.195 73.844h-3.863M42.195 75.828h-3.863M42.195 77.813h-3.863"/><g clip-path="url(#a)"><path fill="#5d21d1" d="M54.934 66.3v38.704H45.25V66.3Zm0 0"/></g><path fill="#fff" d="M52.438 69.594v18.023h-5.204V69.594Zm0 0"/><path fill="#2e186a" d="M52.438 88.371v1.688h-5.204V88.37Zm0 0"/><path fill="none" stroke="#fff" stroke-linecap="round" stroke-linejoin="round" stroke-width=".8008200000000001" d="M51.563 98.356a1.82 1.82 0 0 1-.535 1.29 1.9 1.9 0 0 1-.594.397 1.86 1.86 0 0 1-1.399 0 1.8 1.8 0 0 1-.59-.398 1.8 1.8 0 0 1-.398-.59 1.87 1.87 0 0 1 0-1.398 1.85 1.85 0 0 1 .988-.989 1.8 1.8 0 0 1 1.399 0c.222.094.422.223.593.395a1.84 1.84 0 0 1 .536 1.293m0 0"/><path fill="none" stroke="#2e186a" stroke-linecap="round" stroke-linejoin="round" stroke-width=".8008200000000001" d="M51.781 82.14h-3.863M51.781 71.899h-3.863M51.781 84.125h-3.863M51.781 86.11h-3.863"/><g clip-path="url(#b)"><path fill="#5d21d1" d="M35.738 66.3v38.704h-9.683V66.3Zm0 0"/></g><path fill="#fff" d="M33.238 69.594v18.023H28.04V69.594Zm0 0"/><path fill="#545454" d="M33.238 88.371v1.688H28.04V88.37Zm0 0"/><path fill="none" stroke="#fff" stroke-linecap="round" stroke-linejoin="round" stroke-width=".8008200000000001" d="M32.367 98.356a1.82 1.82 0 0 1-.535 1.29 1.9 1.9 0 0 1-.594.397 1.86 1.86 0 0 1-1.398 0 1.8 1.8 0 0 1-.59-.398 1.8 1.8 0 0 1-.398-.59 1.87 1.87 0 0 1 0-1.398 1.85 1.85 0 0 1 .988-.989 1.8 1.8 0 0 1 1.398 0c.223.094.422.223.594.395a1.84 1.84 0 0 1 .535 1.293m0 0"/><path fill="none" stroke="#2e186a" stroke-linecap="round" stroke-linejoin="round" stroke-width=".8008200000000001" d="M32.586 82.14h-3.867M32.586 71.899h-3.867M32.586 84.125h-3.867M32.586 86.11h-3.867"/><path fill="#fff" stroke="#2e186a" stroke-linecap="round" stroke-linejoin="round" stroke-width=".8008200000000001" d="M46.5 53.871c.07-1.613-.402-3.043-1.426-4.293-1.66-2.02-1.68-3.304-2.613-4.273-.934-.965-2.418-.524-1.082 2.758a359 359 0 0 0 1.91 4.629Zm0 0"/><path fill="#fff" stroke="#2e186a" stroke-linecap="round" stroke-linejoin="round" stroke-width=".8008200000000001" d="M38.86 49.242c.14 0 9.23-.465 10.312 8.543"/><path fill="#fff" stroke="#2e186a" stroke-linecap="round" stroke-linejoin="round" stroke-width=".8008200000000001" d="M45.004 67.223s-1.125-6.649-2.602-8.957-4.773-2.133-4.773-2.133-8.383-7.434-9.594-8.773c-1.215-1.344-.75-2.626 1.418-1.133 2.172 1.492 8.688 6.222 8.688 6.222s10.867-3.68 12.636 6.758l2 6.196Zm0 0"/><path fill="#fff" stroke="#2e186a" stroke-linecap="round" stroke-linejoin="round" stroke-width=".8008200000000001" d="M37.488 55.8s-4.304-9.562-4.949-11.362.227-2.754 1.692-.364c1.46 2.391 4.793 7.93 4.793 7.93"/><path fill="#fff" stroke="#2e186a" stroke-linecap="round" stroke-linejoin="round" stroke-width=".8008200000000001" d="M37.078 55.04s-.34-8.204-.34-9.794c0-2.62 1.575-3.367 1.98.164.266 2.36.571 6.707.571 6.707M160.715 53.871q-.11-2.419 1.426-4.293c1.66-2.02 1.676-3.304 2.613-4.27.942-.968 2.418-.527 1.082 2.755-1.336 3.285-1.918 4.629-1.918 4.629Zm0 0"/><path fill="#fff" stroke="#2e186a" stroke-linecap="round" stroke-linejoin="round" stroke-width=".8008200000000001" d="M168.348 49.242c-.14 0-9.23-.465-10.312 8.543"/><path fill="#fff" stroke="#2e186a" stroke-linecap="round" stroke-linejoin="round" stroke-width=".8008200000000001" d="M162.207 67.223s1.125-6.649 2.602-8.957 4.773-2.133 4.773-2.133 8.38-7.434 9.594-8.777c1.219-1.34.75-2.622-1.418-1.13-2.172 1.493-8.687 6.223-8.687 6.223s-10.867-3.683-12.637 6.758l-2 6.196Zm0 0"/><path fill="#fff" stroke="#2e186a" stroke-linecap="round" stroke-linejoin="round" stroke-width=".8008200000000001" d="M169.723 55.8s4.305-9.562 4.95-11.362c.644-1.801-.227-2.754-1.688-.364-1.465 2.391-4.793 7.93-4.793 7.93"/><path fill="#fff" stroke="#2e186a" stroke-linecap="round" stroke-linejoin="round" stroke-width=".8008200000000001" d="M170.133 55.04s.34-8.204.34-9.794c0-2.62-1.574-3.367-1.98.164-.266 2.36-.567 6.707-.567 6.707"/><path fill="#545454" d="M164.703 63.652c.176-2.043-.09-2.851-.09-2.851-4.695.496-8.46-3.989-8.46-3.989s-.45.508-1.715 2.137c-1.262 1.63-3.66-.21-5.079 2.125-1.148 1.89-5.207 11.797-6.722 15.528-4.61-13.696-10.535-20.657-20.2-22.407-1.261-7.632-6.699-17.316-28.351-15.625-13.453 2.426-17.559 9.317-16.629 16.594h-.062s-8.711-.117-13.59 14.379c-1.43-3.363-2.88-6.652-3.504-7.684-1.418-2.34-6.262-1.289-7.528-2.91-1.265-1.625-1.714-2.136-1.714-2.136s-3.762 4.492-8.465 3.988c0 0-.266.808-.086 2.851s-2.305 2.278-1.754 4.946c.555 2.672 9.3 26.62 9.3 26.62.825 2.227 1.915 9.196 6.434 9.442q.04.111.157.117c7.167-.02 94.792.055 94.792.055s.008-.098.016-.273c3.906-.922 4.918-7.239 5.695-9.34 0 0 8.747-23.95 9.301-26.621.551-2.668-1.926-2.903-1.746-4.946m0 0"/><path fill="#2e186a" d="M164.742 63.328c.336-2.137-.078-2.937-.078-2.937-4.289.925-8.254-3.95-8.254-3.95s-.535.473-1.812 2.27c-.516.723-1.043.8-1.578.95 1.78 5.796 10.128 6.597 13.035 6.667-.22-1.254-1.567-1.379-1.313-3M42.453 63.344c-.336-2.137.094-2.95.094-2.95 4.293.93 8.258-3.949 8.258-3.949s.644.075 1.925 1.871c.52.723 1.407 1.332 1.942 1.48-1.781 5.794-10.7 6.583-13.606 6.653.22-1.261 1.641-1.484 1.387-3.105M77.41 54.71c-2.61.536-5.312 1.907-7.703 4.56 2.227 3.218 9.996 14.167 24.32 16.496a1.5 1.5 0 0 0-.062-.293C86.023 72.215 78.25 63.148 77.41 54.71M122.426 54.137c.496 2.965.36 5.629.293 7.199-.219 5.2-2.551 8.824-4.02 11.414l-.101 2.66c6.054-1.426 10.808-12.64 11.625-18.152-2.149-1.18-2.536-2.055-7.797-3.121m0 0"/><path fill="none" stroke="#2e186a" stroke-linecap="round" stroke-linejoin="round" stroke-width="1.06776" d="M93.008 72.54s5.75 9.925 6.352 16.195M117.809 71.93s-2.692 9.809-2.035 16.07"/><path fill="none" stroke="#2e186a" stroke-linecap="round" stroke-linejoin="round" stroke-width=".8008200000000001" d="M63.45 69.89c.058.184 6.437 13.731 6.437 13.731M142.965 76.895l-4.37 7.61"/><g clip-path="url(#c)"><path fill="none" stroke="#2e186a" stroke-linecap="round" stroke-linejoin="round" stroke-width=".8008200000000001" d="M82.313 94.274s-.532 10.867-6.211 10.613"/></g><g clip-path="url(#d)"><path fill="#fff" d="M114.598 104.863c-1.184-9.172-2.442-22.738-.508-28.476 3.055-9.043 1.867-20.39-.195-22.032-2.063-1.644-24.852-1.328-24.852-1.328l-4.098 1.414s15.598 14.489 20.215 40.926c.727 4.149 1.215 7.406 1.54 9.961"/></g><path fill="#fff" stroke="#2e186a" stroke-linecap="round" stroke-linejoin="round" stroke-width=".8008200000000001" d="m92.59 45.336-.332 5.781-3.402 2.348s8.914 6.172 16.886 15.395c0 0 4.891-3.461 6.036-14.418l-2.567-.399-12.277-7.273ZM88.73 34.777s-5.257.727-3.765 5.41c1.492 4.688 7 1.231 7 1.231l-1.559-6.726Zm0 0"/><path fill="#fff" stroke="#2e186a" stroke-linecap="round" stroke-linejoin="round" stroke-width=".8008200000000001" d="M101.246 16.059c1.375-.282 10.829-2.016 12.793 5.937 1.965 7.95 1.86 16.996 1.446 21.168-.418 4.176-18.86 4.446-19.934 4.203-1.07-.242-2.441-1.324-2.441-1.324l-3.918-12.102s-2.73-14.859 12.054-17.882m0 0"/><path fill="#968bb4" d="M90.91 33.629c.985.785 3.934 5.637 4.781 7.96 0 0 5.618-2.702 13.977-3.812 0 0 4.578-.445 6.46-.109 0 0 .575 8.516-2.628 13.336-3.2 4.82-11.168 4.52-15.14 2.316s-4.723-3.39-5.895-6.11c-1.172-2.718-4.621-12.968-4.621-12.968Zm0 0"/><path fill="#2e186a" d="M88.73 35.719s-2.918-3.61-4.328-7.551c-1.336-3.703-.035-7.898 3.243-10.008 2.742-1.765 5.02-.898 5.02-.898s-3.68-4.973.413-10.219a8.4 8.4 0 0 1 2.617-2.227 8.3 8.3 0 0 1 3.285-.996c5.665-.488 7.957 4.16 7.957 4.16s4.774-11.984 17.915-6.746c1.324.532 2.941 2.243 3.757 3.426 4.953 7.188-7.511 17.836-14.449 19.371-7.62 1.684-12.277.91-14.976-.718 1.972.914 1.214 12.878-10.454 12.406m0 0"/><path fill="none" stroke="#2e186a" stroke-linecap="round" stroke-linejoin="round" stroke-width="1.06776" d="m108.73 32.465 1.68 7.281-2.156.488"/><path fill="#2e186a" d="M112.207 34.137q.052.481-.125.851c-.121.242-.285.38-.488.399q-.31.035-.567-.282a1.5 1.5 0 0 1-.308-.804q-.058-.482.125-.852c.117-.242.281-.379.488-.402q.304-.03.563.285.255.317.312.805M105.09 34.61a1.55 1.55 0 0 1-.125.85q-.18.37-.488.403c-.207.024-.395-.074-.567-.285a1.53 1.53 0 0 1-.308-.8q-.056-.488.125-.852c.12-.246.28-.38.488-.403q.31-.035.562.282c.172.215.278.48.313.804m0 0"/><path fill="none" stroke="#2e186a" stroke-linecap="round" stroke-linejoin="round" stroke-width="1.06776" d="M101.707 32.797s3.043-.184 3.004-2.215M110.469 27.668s2.004-.785 2.711.867"/><path fill="none" stroke="#2e186a" stroke-linecap="round" stroke-linejoin="round" stroke-width=".8008200000000001" d="M108.07 43.48q-1.606.299-3.242.215c-.664-.027-1.171.387-.972.801.344.735 1.172 1.602 3.133 1.375 1.933-.23 2.316-1.12 2.312-1.808 0-.414-.625-.7-1.23-.582m0 0"/><path fill="#2e186a" d="M153.648 104.035h-41.023v-9.687h41.023Zm0 0"/><path fill="#fff" d="m152.563 102.09-18.02.082-.023-5.2 18.02-.085Zm0 0"/><path fill="#545454" d="m133.79 102.176-1.688.008-.024-5.2 1.684-.007Zm0 0"/><path fill="none" stroke="#fff" stroke-linecap="round" stroke-linejoin="round" stroke-width=".8008200000000001" d="M123.125 99.782q-.001.364-.136.699a1.85 1.85 0 0 1-.989.988 1.8 1.8 0 0 1-.699.137q-.364.002-.7-.137a1.9 1.9 0 0 1-.593-.395 1.836 1.836 0 0 1 0-2.585 1.9 1.9 0 0 1 .594-.395q.335-.139.7-.137a1.8 1.8 0 0 1 1.288.532q.258.258.399.593.136.335.136.7m0 0"/><path fill="none" stroke="#fe7624" stroke-linecap="round" stroke-linejoin="round" stroke-width=".8008200000000001" d="m148.27 101.52-.02-3.863M146.286 101.528l-.02-3.864M144.301 101.54l-.02-3.868"/><path fill="#2e186a" d="M157.945 95.445h-38.703V85.27h38.703Zm0 0"/><path fill="#fff" d="M154.648 92.453h-18.02v-5.2h18.02Zm0 0"/><path fill="#545454" d="M135.871 92.453h-1.687v-5.2h1.687Zm0 0"/><path fill="none" stroke="#fff" stroke-linecap="round" stroke-linejoin="round" stroke-width=".8008200000000001" d="M127.715 89.754q-.001.364-.137.7a1.8 1.8 0 0 1-.398.59 1.8 1.8 0 0 1-.59.398 1.87 1.87 0 0 1-1.398 0 1.85 1.85 0 0 1-.989-.989 1.8 1.8 0 0 1-.14-.699q0-.364.14-.7.139-.333.395-.593a1.9 1.9 0 0 1 .594-.394q.334-.139.699-.137a1.8 1.8 0 0 1 1.289.531q.258.259.398.594.136.335.137.7m0 0"/><path fill="none" stroke="#fe7624" stroke-linecap="round" stroke-linejoin="round" stroke-width=".8008200000000001" d="M142.106 91.797v-3.863M152.348 91.797v-3.863M140.121 91.797v-3.863M138.137 91.797v-3.863"/><path fill="#5d21d1" d="M150.625 71.14h47.938v33.813h-47.938Zm0 0"/><g clip-path="url(#e)"><path fill="none" stroke="#fff" stroke-linejoin="round" stroke-width=".8008200000000001" d="M177.524 70.82v34.325"/></g><path fill="none" stroke="#fff" stroke-linecap="round" stroke-linejoin="round" stroke-width=".8008200000000001" d="M171.067 74.887h21.691M184.192 87.035h13.934M168.899 98.367h27.168M172.696 83.996h-14.043M150.68 78.684h8.516M150.625 94.301h16.649"/><path fill="#5d21d1" stroke="#fff" stroke-linecap="round" stroke-linejoin="round" stroke-width=".8008200000000001" d="M150.555 78.735c-3.582 1.41.106 3.77.106 3.77s.925-2.669 5.64-3.759ZM198.704 86.977c3.578 1.41-.11 3.77-.11 3.77s-.922-2.669-5.64-3.758ZM163.207 94.324s-8.304 1.567-8.101 6.454c0 0-6.656-2.442-4.402-6.454Zm0 0"/><g clip-path="url(#f)"><path fill="none" stroke="#2e186a" stroke-linecap="round" stroke-linejoin="round" stroke-width="1.06776" d="M.55 104.91h224.9"/></g></svg>