<svg xmlns="http://www.w3.org/2000/svg" width="1050" height="600" version="1.0" viewBox="0 0 787.5 450"><defs><clipPath id="a"><path d="M45 383h5v66.855h-5Zm0 0"/></clipPath><clipPath id="b"><path d="M697 343h5v106.855h-5Zm0 0"/></clipPath><clipPath id="c"><path d="M493 287h84v162.855h-84Zm0 0"/></clipPath><clipPath id="d"><path d="M321 .145h82V85h-82Zm0 0"/></clipPath><clipPath id="e"><path d="M0 445h787v4.855H0Zm0 0"/></clipPath></defs><path fill="#5d21d1" d="M653.047 387.785c-8.016 4.48-22.848 9.848-35.094-2.144-12.625-12.309-21.648-12.059-25.879-10.86a3.15 3.15 0 0 0-1.914.227 3.199 3.199 0 0 0-1.434 1.29l-26.57 48.288a12 12 0 0 1-1.898 2.55 11.95 11.95 0 0 1-5.43 3.208 12 12 0 0 1-3.152.426h-86.54q-.615-.001-1.183.238a3.053 3.053 0 0 0-1.672 1.672 3.1 3.1 0 0 0-.238 1.183c0 .41.082.805.238 1.184q.235.57.668 1.004a3.075 3.075 0 0 0 2.188.906h86.539a18 18 0 0 0 4.789-.644 18 18 0 0 0 4.45-1.887 18.1 18.1 0 0 0 6.667-6.875l15.527-28.278c5.809.758 13.7 3.344 21.082 10.606 14.266 13.887 30.993 6.058 37.118 2.336a10.07 10.07 0 0 0 3.597-3.727l10.414-18.367c.211-.328.293-.683.254-1.07a1.63 1.63 0 0 0-.465-.996 1.6 1.6 0 0 0-.984-.493 1.64 1.64 0 0 0-1.078.223M223.574 331.922a1.53 1.53 0 0 0-.922-.817 1.5 1.5 0 0 0-.625-.066c-.21.02-.414.086-.597.191-.254.125-2.907 1.766-14.457 7.512l-5.301 2.586c-25.188 12.121-62.363 27.52-77.45 21.145a1.5 1.5 0 0 0-.945-.094 1.5 1.5 0 0 0-.824.473c-.062.062-5.488 5.933-17.355 11.488-10.922 5.113-29.73 10.922-57.188 9.594a1.5 1.5 0 0 0-.672.105 1.4 1.4 0 0 0-.554.39 1.4 1.4 0 0 0-.325.594 1.4 1.4 0 0 0-.027.68q.1.557.523.926.428.375.989.398c2.465.125 4.8.192 7.133.192l1.136 7.445c.059.371.215.691.477.965q.392.405.941.512.557.105 1.067-.13.514-.228.8-.714l4.797-8.332c3.344-.192 6.563-.504 9.657-.883l1.765 6.438q.159.534.586.886.428.353.98.406c.372.036.715-.035 1.04-.214q.491-.27.742-.762l3.785-8.145c2.59-.503 4.988-1.07 7.262-1.64l1.449 5.367q.157.53.586.887.428.351.98.406c.371.035.715-.04 1.04-.215.324-.18.574-.433.742-.766l3.914-8.332a78 78 0 0 0 7.699-3.156l1.012 3.727q.152.534.582.886.428.354.98.407c.371.035.715-.04 1.043-.215q.486-.27.738-.762l3.914-8.46a50.3 50.3 0 0 0 9.47-7.134c3.218 1.137 7.132 1.454 11.55 1.2l2.648 6.566q.205.51.66.813.458.304 1.004.293a1.7 1.7 0 0 0 .993-.333c.297-.214.504-.492.629-.835l2.902-7.637a92 92 0 0 0 8.52-1.957l1.199 5.11q.118.548.535.929c.273.254.597.398.972.441q.557.064 1.047-.207.491-.275.73-.785l4.102-8.078c2.778-.883 5.555-1.895 8.332-2.902l1.075 4.605c.082.36.257.66.523.91q.406.37.945.457c.364.055.707.004 1.04-.152a1.8 1.8 0 0 0 .773-.707l4.922-8.649c2.465-1.011 4.926-2.02 7.386-3.093l1.2 4.418c.105.355.297.652.586.886.285.239.609.371.98.407q.551.053 1.04-.215a1.76 1.76 0 0 0 .737-.762l3.914-8.457c2.653-1.2 5.176-2.398 7.641-3.598l.945 3.598c.102.356.297.648.582.887.29.234.614.37.985.406.367.035.715-.04 1.039-.215q.486-.27.738-.762l3.598-7.703c9.785-4.922 11.617-6.058 12.562-6.562.258-.285.418-.613.489-.988a2 2 0 0 0-.11-1.098m0 0"/><path fill="#5d21d1" d="M298.75 309.64a1.54 1.54 0 0 0-1.766.38c-.062.062-5.492 5.933-17.359 11.488-10.918 5.113-29.73 10.922-57.187 9.594q-.346-.023-.672.105a1.498 1.498 0 0 0-.906 1.664q.1.557.527.926.423.375.988.398c2.46.125 4.797.192 7.133.192l1.074 7.32q.088.58.496 1 .405.417.984.523.573.111 1.106-.136c.352-.164.629-.418.82-.754l4.672-8.207c3.344-.192 6.563-.504 9.656-.883l1.707 6.313c.102.363.297.671.59.914q.435.363 1.004.418.57.053 1.067-.227c.332-.188.578-.45.746-.793l3.726-8.016c2.586-.504 4.985-1.074 7.258-1.64l2.02 6.058q.181.555.656.907c.312.23.668.351 1.058.355q.587.012 1.067-.316.487-.334.691-.883l3.219-8.774a77 77 0 0 0 7.7-3.156l.948 3.598q.152.55.59.918.435.364 1.004.418.57.053 1.067-.227c.332-.187.578-.449.746-.793l3.851-8.27a50.3 50.3 0 0 0 9.469-7.132M700.895 344.988a1.501 1.501 0 0 0-.816-.879 1.5 1.5 0 0 0-.602-.129q-.315.001-.602.125c-24.3 10.165-49.867 5.051-75.934-15.085-19.632-15.149-32.129-33.645-32.257-33.77a1.605 1.605 0 0 0-2.145-.441 1.605 1.605 0 0 0-.441 2.144q4.709 6.79 10.226 12.942l3.09 14.832q.118.551.524.937c.269.258.59.422.957.484a1.8 1.8 0 0 0 1.066-.14q.509-.236.8-.711l3.094-5.242a145 145 0 0 0 8.52 7.703l3.281 11.426a1.814 1.814 0 0 0 3.285.441l2.903-4.547c2.586 1.832 5.176 3.473 7.828 5.05l4.543 12.813c.12.332.316.61.597.825q.418.327.946.375.527.052.996-.188.473-.239.742-.695l4.043-7.07a71 71 0 0 0 7.508 2.714l5.933 10.352q.281.474.766.715.492.247 1.031.183.545-.059.965-.406.422-.35.586-.871l2.207-7.383c3.203.45 6.426.68 9.66.692h.758l6.375 8.332q.317.41.805.593.486.182.996.082.511-.1.894-.453.382-.353.524-.851l2.586-9.028a68.5 68.5 0 0 0 12.75-3.914q.298-.093.531-.293.239-.2.379-.476.145-.278.168-.582a1.5 1.5 0 0 0-.066-.606m0 0"/><g clip-path="url(#a)"><path fill="#545454" d="M47.594 383.492c.242 0 .472.047.699.133q.334.136.598.383a1.9 1.9 0 0 1 .593 1.27l.004.109v62.363q0 .37-.14.71a1.866 1.866 0 0 1-.992 1.023c-.223.103-.461.154-.708.162a1.9 1.9 0 0 1-.714-.118 2 2 0 0 1-.621-.379 1.93 1.93 0 0 1-.61-1.289l-.004-.109v-62.363q-.001-.375.145-.727.146-.344.41-.613.269-.264.613-.41a1.9 1.9 0 0 1 .727-.145m0 0"/></g><path fill="#545454" d="M123.527 362.031c.243 0 .477.047.7.133q.335.136.601.383.263.251.414.578.152.33.176.688l.004.113v82.812c0 .25-.047.485-.14.715q-.136.341-.395.606a1.88 1.88 0 0 1-2.02.457 1.8 1.8 0 0 1-.617-.38 1.8 1.8 0 0 1-.434-.581 1.9 1.9 0 0 1-.18-.703l-.003-.114v-82.812q.001-.375.144-.727.147-.344.41-.613c.18-.176.383-.313.618-.41q.346-.146.722-.145M222.375 330.598q.361 0 .7.132c.222.09.425.22.6.383a1.922 1.922 0 0 1 .59 1.266l.005.113v114.121q0 .37-.141.711a1.866 1.866 0 0 1-.992 1.023q-.336.151-.707.16a1.886 1.886 0 0 1-1.945-1.781l-.005-.113v-114.12c0-.255.047-.493.145-.727a1.9 1.9 0 0 1 1.75-1.168m0 0"/><g clip-path="url(#b)"><path fill="#545454" d="M699.633 343.348c.242 0 .472.047.699.132q.334.137.598.383a1.9 1.9 0 0 1 .593 1.266l.004.113V447.75q0 .37-.14.71a1.86 1.86 0 0 1-.992 1.024q-.34.151-.707.16a1.9 1.9 0 0 1-.715-.117 2 2 0 0 1-.621-.379 1.93 1.93 0 0 1-.61-1.289l-.004-.109V345.242q-.001-.375.145-.726a1.9 1.9 0 0 1 1.75-1.168m0 0"/></g><path fill="#545454" d="m583.488 287.234-228.496 1.512a9.4 9.4 0 0 0-2.531.285 9.44 9.44 0 0 0-5.926 4.516L272.81 427.676l-187.344.129s-3.219 18.808 23.734 19.945l403.973-.504 78.902-148.02c3.031-5.617-1.64-12.058-8.586-11.992m0 0"/><path fill="#fff" d="m296.29 427.11 192.96-.82 59.71-116.333c2.337-4.48-.757-9.91-5.554-9.848l-175.347 2.145Zm0 0"/><g clip-path="url(#c)"><path fill="#fff" d="M564.598 287.36c8.27-.075 13.906 7.644 10.445 14.57l-.11.21-78.144 145.997a1.88 1.88 0 0 1-1.094.91 1.904 1.904 0 0 1-1.418-.105 1.91 1.91 0 0 1-.941-1.067 1.9 1.9 0 0 1-.106-.715c.008-.246.067-.48.168-.707l.051-.101 78.14-145.989c2.263-4.285-1.32-9.265-6.956-9.218a1.894 1.894 0 0 1-1.344-.54 1.9 1.9 0 0 1-.414-.613 1.8 1.8 0 0 1-.152-.722q-.005-.375.136-.727a1.91 1.91 0 0 1 1.739-1.184m0 0"/></g><path fill="#5d21d1" d="m306.578 346.758 21.145 38.883q.349.604.992.875.645.27 1.32.09a2.02 2.02 0 0 0 1.106-.727q.428-.552.433-1.25l-1.39-17.672s12.375 42.543 29.351 43.613c16.98 1.075 33.266-44.812 33.266-44.812l-4.48 19.25q-.007.704.421 1.262c.29.37.656.617 1.11.738q.684.177 1.328-.098c.433-.183.761-.48.992-.89l22.594-39.262M280.129 196.402s-50.434 68.297-43.93 129.399H347.48V194.949ZM438.691 196.402s50.434 68.297 43.93 129.399H371.34V194.949Zm0 0"/><path fill="#fff" d="M404.793 325.8c42.734-76.82 38.062-137.792 25.629-179.577-12.5-41.79-41.785-88.371-69.621-88.371-27.84 0-57.125 46.582-69.625 88.37-12.496 41.786-17.735 102.758 24.996 179.579l-11.93 25.754h112.672Zm0 0"/><path fill="#2e186a" d="M416.914 353.45H304.242c-.16 0-.316-.024-.469-.063-.156-.04-.3-.098-.441-.172a1.9 1.9 0 0 1-.684-.64 1.8 1.8 0 0 1-.203-.43 1.85 1.85 0 0 1 .078-1.387l11.528-24.883-.711-1.29c-4.715-8.624-8.98-17.331-12.68-25.886a271 271 0 0 1-9.512-25.375 240 240 0 0 1-6.46-24.887 220 220 0 0 1-3.528-24.414l-.082-.996a209 209 0 0 1-.691-20.109c.093-6.504.504-13.07 1.222-19.523a206 206 0 0 1 3.032-19.043 223 223 0 0 1 4.722-18.672c6.551-21.895 17.246-43.918 29.348-60.434 6.879-9.387 13.934-16.656 20.957-21.613 7.219-5.094 14.328-7.676 21.133-7.676 6.8 0 13.91 2.582 21.129 7.676 7.027 4.957 14.078 12.226 20.953 21.613 12.105 16.516 22.8 38.543 29.347 60.438a214 214 0 0 1 4.657 18.593 206 206 0 0 1 2.949 19.036 204 204 0 0 1 1.133 19.558 210 210 0 0 1-.793 20.168 221 221 0 0 1-3.567 24.613 242 242 0 0 1-6.535 25.114 272 272 0 0 1-9.62 25.632c-3.74 8.645-8.052 17.45-12.817 26.164l-.723 1.31 11.707 24.878q.207.426.184.898a1.8 1.8 0 0 1-.27.875c-.344.579-.848.883-1.515.922ZM360.801 59.745c-6.102 0-12.59 2.434-19.285 7.227-6.59 4.722-13.235 11.62-19.75 20.515-11.86 16.176-22.344 37.778-28.774 59.278-7.594 25.379-10.254 50.222-8.144 75.953 2.742 33.383 13.836 67.754 32.976 102.16q.468.841.063 1.719l-10.68 23.062H413.93l-10.848-23.055a1.8 1.8 0 0 1 0-1.609l.059-.117c19.175-34.461 30.367-68.84 33.27-102.168a200 200 0 0 0-.255-38.348 200 200 0 0 0-7.55-37.597c-6.43-21.496-16.915-43.102-28.77-59.278-6.52-8.894-13.164-15.793-19.754-20.515-6.695-4.793-13.184-7.227-19.281-7.227m0 0"/><path fill="#5d21d1" d="M392.613 178.035q.002 1.858-.156 3.711a44.3 44.3 0 0 1-1.215 7.281 42 42 0 0 1-2.387 6.86 41 41 0 0 1-1.605 3.187 38 38 0 0 1-1.86 2.985q-.99 1.44-2.097 2.754a34 34 0 0 1-2.313 2.496 32 32 0 0 1-2.507 2.214 30.4 30.4 0 0 1-5.5 3.5 28 28 0 0 1-5.97 2.157 28 28 0 0 1-3.085.547q-1.56.18-3.117.18a27 27 0 0 1-3.121-.18 27.7 27.7 0 0 1-9.055-2.704 30.42 30.42 0 0 1-5.5-3.5 32 32 0 0 1-2.508-2.214 34 34 0 0 1-2.312-2.496 35 35 0 0 1-2.098-2.754 38 38 0 0 1-1.86-2.985 40.5 40.5 0 0 1-2.94-6.547 43.6 43.6 0 0 1-1.81-7.105 44 44 0 0 1-.456-3.676 44 44 0 0 1-.157-3.71c0-1.243.051-2.477.157-3.712q.152-1.85.457-3.68.306-1.822.757-3.605a44 44 0 0 1 1.051-3.496 40.7 40.7 0 0 1 2.942-6.55 39 39 0 0 1 1.859-2.985q.99-1.435 2.098-2.754a35 35 0 0 1 2.312-2.496 32.141 32.141 0 0 1 5.184-4.125 31 31 0 0 1 2.824-1.59 28.04 28.04 0 0 1 5.969-2.152 27 27 0 0 1 6.207-.73 27 27 0 0 1 6.203.73 28 28 0 0 1 5.969 2.152 31 31 0 0 1 2.824 1.59 32 32 0 0 1 5.183 4.125c.805.789 1.579 1.62 2.313 2.496a37 37 0 0 1 2.098 2.754q.99 1.439 1.859 2.984a40.5 40.5 0 0 1 2.941 6.551q.599 1.718 1.051 3.496.452 1.782.758 3.606.304 1.827.457 3.68c.106 1.234.156 2.468.156 3.71M366.102 226.637q-.002.621-.102 1.23-.103.614-.3 1.188a7 7 0 0 1-.493 1.09 6 6 0 0 1-.66.957 5.6 5.6 0 0 1-.8.785q-.437.344-.919.582a4.6 4.6 0 0 1-2.027.48q-.527 0-1.035-.12a4.6 4.6 0 0 1-.996-.36 5.3 5.3 0 0 1-.918-.582 5.6 5.6 0 0 1-.801-.785 6.525 6.525 0 0 1-1.148-2.047 7 7 0 0 1-.305-1.188 7.6 7.6 0 0 1-.102-1.23q0-.622.102-1.23c.07-.407.168-.802.304-1.184a6.7 6.7 0 0 1 .489-1.094 6.1 6.1 0 0 1 1.46-1.738q.44-.345.919-.586.48-.236.996-.36a4.6 4.6 0 0 1 1.035-.12 4.6 4.6 0 0 1 2.027.48c.32.16.629.355.918.586q.434.345.8.785c.247.293.47.61.661.953.195.348.356.71.492 1.094.133.382.23.777.301 1.183q.1.61.102 1.23M386.55 226.637c0 .414-.03.824-.1 1.23a7 7 0 0 1-.79 2.278 6.4 6.4 0 0 1-.66.957 5.7 5.7 0 0 1-.805.785 5 5 0 0 1-.918.582c-.32.16-.652.277-.992.36a4.4 4.4 0 0 1-1.035.12q-.52 0-1.035-.12c-.34-.083-.672-.2-.992-.36a5 5 0 0 1-.918-.582 5.7 5.7 0 0 1-.805-.785 6.4 6.4 0 0 1-1.148-2.047 7 7 0 0 1-.301-1.188 7 7 0 0 1-.102-1.23c0-.414.031-.825.102-1.23a7.1 7.1 0 0 1 .789-2.278q.292-.515.66-.953a5.7 5.7 0 0 1 .805-.785q.432-.345.918-.586a5 5 0 0 1 .992-.36 4.7 4.7 0 0 1 1.035-.12q.52.002 1.035.12a4.9 4.9 0 0 1 1.91.946q.435.345.805.785.368.439.66.953a7 7 0 0 1 .79 2.277c.07.406.1.817.1 1.23M344.07 226.637c0 .414-.03.824-.101 1.23a7 7 0 0 1-.79 2.278 6.4 6.4 0 0 1-.66.957 5.7 5.7 0 0 1-.804.785 5 5 0 0 1-.918.582c-.32.16-.652.277-.992.36a4.4 4.4 0 0 1-1.035.12q-.521 0-1.036-.12c-.34-.083-.671-.2-.992-.36a5 5 0 0 1-.918-.582 5.7 5.7 0 0 1-.804-.785 6.4 6.4 0 0 1-1.149-2.047 7 7 0 0 1-.3-1.188 7 7 0 0 1-.102-1.23q-.002-.622.101-1.23a7.1 7.1 0 0 1 .79-2.278q.291-.515.66-.953a5.7 5.7 0 0 1 .804-.785q.433-.345.918-.586a5 5 0 0 1 .992-.36 4.7 4.7 0 0 1 1.036-.12q.519.002 1.035.12a4.9 4.9 0 0 1 1.91.946q.434.345.805.785.368.439.66.953a7 7 0 0 1 .789 2.277c.07.406.101.817.101 1.23m0 0"/><path fill="#fff" d="M384.848 174.309q0 1.404-.118 2.804a33 33 0 0 1-.918 5.496 32 32 0 0 1-1.804 5.18 29.5 29.5 0 0 1-2.617 4.66 27 27 0 0 1-3.336 3.965 25 25 0 0 1-1.895 1.672q-.982.78-2.023 1.441-1.044.662-2.133 1.2-1.093.54-2.223.945c-.754.273-1.52.5-2.289.683q-1.158.275-2.336.41-1.178.139-2.355.137c-.79 0-1.574-.043-2.36-.136a20 20 0 0 1-2.336-.41q-1.157-.274-2.289-.684a22.568 22.568 0 0 1-4.355-2.145 25 25 0 0 1-2.024-1.441 25 25 0 0 1-1.894-1.672 27.21 27.21 0 0 1-3.336-3.965 29 29 0 0 1-1.402-2.254 30 30 0 0 1-1.215-2.406 31.77 31.77 0 0 1-1.805-5.18q-.34-1.341-.574-2.718a33 33 0 0 1-.344-2.778 33.6 33.6 0 0 1 0-5.605c.074-.934.192-1.856.344-2.778q.234-1.376.574-2.718a32 32 0 0 1 1.805-5.18q.556-1.241 1.215-2.406a28.074 28.074 0 0 1 2.988-4.336q.837-.992 1.75-1.883a25 25 0 0 1 1.894-1.672q.986-.78 2.024-1.441a22 22 0 0 1 2.137-1.2q1.088-.54 2.218-.945 1.133-.409 2.29-.683 1.159-.275 2.335-.41a20 20 0 0 1 4.715 0q1.177.135 2.336.41 1.156.274 2.29.683a22.136 22.136 0 0 1 4.355 2.145q1.04.662 2.023 1.441c.656.52 1.285 1.078 1.895 1.672q.913.892 1.75 1.883a28 28 0 0 1 2.992 4.336q.655 1.165 1.21 2.406a31.77 31.77 0 0 1 1.805 5.18c.231.894.418 1.8.575 2.718.152.922.27 1.844.343 2.778q.118 1.4.118 2.8m0 0"/><path fill="#2e186a" d="M360.8 204.797q-5.353 0-10.132-2.402a25.8 25.8 0 0 1-8.242-6.551 30.9 30.9 0 0 1-5.543-9.696 35 35 0 0 1-1.516-5.832 35.6 35.6 0 0 1 1.516-17.843 30.9 30.9 0 0 1 5.543-9.696 25.8 25.8 0 0 1 8.242-6.55q2.353-1.184 4.926-1.793 2.565-.61 5.203-.61 2.642 0 5.207.61a22.5 22.5 0 0 1 4.926 1.793q4.798 2.425 8.242 6.55a30.9 30.9 0 0 1 5.543 9.696 35.6 35.6 0 0 1 2.027 11.84q-.001 3.022-.512 6.003a36 36 0 0 1-1.515 5.836 30.9 30.9 0 0 1-5.543 9.692 25.8 25.8 0 0 1-8.242 6.55 22.26 22.26 0 0 1-10.13 2.403m0-57.188c-12.218 0-22.155 11.98-22.155 26.7 0 14.722 9.937 26.703 22.156 26.703 12.215 0 22.152-11.977 22.152-26.703 0-14.723-9.937-26.7-22.152-26.7m0 0"/><g clip-path="url(#d)"><path fill="#5d21d1" d="M366.418 56.777V11.586a6.9 6.9 0 0 0 1.324-4.106q.001-.681-.133-1.351a7 7 0 0 0-.394-1.305 7 7 0 0 0-.645-1.199q-.376-.568-.863-1.055-.481-.482-1.05-.863a7 7 0 0 0-1.2-.64 7 7 0 0 0-1.305-.395 7 7 0 0 0-1.351-.133q-.686-.001-1.356.133-.672.136-1.304.394-.632.265-1.2.641a7 7 0 0 0-2.558 3.117 7 7 0 0 0-.395 1.305q-.134.67-.133 1.351a6.9 6.9 0 0 0 1.325 4.106v45.129c-11.676 2.398-23.352 12.183-34.02 25.312a150.3 150.3 0 0 1 42.29-3.41c13.042.7 25.921 2.551 38.628 5.555-11.043-14.137-23.414-24.742-35.66-27.395m0 0"/></g><path fill="#5d21d1" d="M412.621 107.402c-13.95-4.672-29.98-8.773-51.508-9.593-21.965-.82-38.629 4.101-52.324 9.468a202 202 0 0 0-14.582 33.895c16.41-8.016 36.547-16.473 67.414-15.906 29.352.504 49.547 7.007 64.887 13.824a203.3 203.3 0 0 0-13.887-31.688M403.152 325.484c2.02-3.66 3.977-7.257 5.809-10.855-9.66-3.914-23.543-7.195-48.227-6.945-24.93-.188-38.882 3.156-48.539 7.132a632 632 0 0 0 5.68 10.73s21.906-4.292 42.797-4.1c20.578-.192 42.48 4.038 42.48 4.038m0 0"/><path fill="#fff" d="M519.547 426.29H420.32s-14.261-12.813-7.699-23.294c6.567-10.476 23.797-13 29.414-2.398 0 0 2.461-20.262 23.23-18.684 20.829 1.578 19.188 23.23 19.188 23.23s26.32-18.62 25.625 10.477c-.062-.062 1.578 10.668 9.469 10.668m0 0"/><path fill="#2e186a" d="M519.547 428.184H420.32q-.72-.002-1.265-.485c-.192-.176-.618-.57-1.29-1.265l-.288-.301a42 42 0 0 1-3.399-4.059 29.4 29.4 0 0 1-3.976-7.164 16.24 16.24 0 0 1-1.047-7.125q.281-3.134 1.965-5.793 3.086-4.852 8.199-7.496a22.16 22.16 0 0 1 10.367-2.598q3.18-.021 6.18 1.028a14.5 14.5 0 0 1 5.203 3.156l.168.164.14-.43a27.4 27.4 0 0 1 2.375-5.183l.254-.418a20.93 20.93 0 0 1 7.715-7.547q5.313-2.858 11.348-2.734c.793 0 1.613.03 2.437.093l.34.028c4.543.39 8.434 1.718 11.559 3.945a20.2 20.2 0 0 1 4.035 3.89 20.1 20.1 0 0 1 2.812 4.852 27.9 27.9 0 0 1 1.996 7.633c.059.465.106.926.137 1.367v.028l.402-.223c.473-.266.965-.527 1.465-.781l.504-.254a30.6 30.6 0 0 1 8.297-2.864q1.5-.262 3.024-.273c3.218 0 5.843 1.02 7.808 3.027 2.93 2.993 4.34 8.086 4.192 15.141l.007.062.051.262a16.527 16.527 0 0 0 1.477 4.195c1.515 2.918 3.492 4.336 6.039 4.336l.125.004q.362.017.687.176.327.151.578.414.248.263.38.602a1.86 1.86 0 0 1 0 1.394 1.8 1.8 0 0 1-.38.602q-.25.262-.578.414a1.8 1.8 0 0 1-.687.176l-.125.004Zm-90.012-32.489a18.3 18.3 0 0 0-8.7 2.223 18.321 18.321 0 0 0-6.61 6.086 9 9 0 0 0-1.397 4.121c-.312 3.445 1.137 7.383 4.309 11.71a38 38 0 0 0 3.781 4.403l.16.157h90.754l-.238-.297a15.6 15.6 0 0 1-1.328-2.078l-.114-.215a20.3 20.3 0 0 1-1.867-5.39l-.023-.118a8 8 0 0 1-.047-.305l-.012-.097-.015-.141v-.29l.011-.581c.051-5.68-1-9.645-3.117-11.785l-.117-.114a6.9 6.9 0 0 0-2.348-1.414 7 7 0 0 0-2.71-.402q-1.166.007-2.313.207a26.8 26.8 0 0 0-7.258 2.531 42 42 0 0 0-3.48 1.93c-.211.129-.418.262-.622.39l-.441.29-.336.23a1.8 1.8 0 0 1-1 .293 1.83 1.83 0 0 1-1.402-.617 1.78 1.78 0 0 1-.493-1.422l.008-.156.012-.278q.04-1.876-.195-3.734a24.2 24.2 0 0 0-1.723-6.61c-2.738-6.425-7.824-9.835-15.543-10.417a27 27 0 0 0-2.164-.086c-7.02 0-12.348 2.855-15.832 8.492a23.7 23.7 0 0 0-2.621 5.976c-.195.68-.352 1.34-.473 1.965q-.07.374-.094.532l-.035.253q-.058.334-.226.622a1.8 1.8 0 0 1-.426.503 1.857 1.857 0 0 1-1.227.434q-.526 0-.972-.273a1.8 1.8 0 0 1-.688-.739l-.144-.261c-1.996-3.512-5.887-5.528-10.684-5.528m0 0"/><path fill="#fff" d="M203.629 426.477h99.226s14.266-12.813 7.7-23.29c-6.567-10.48-23.797-13.003-29.414-2.398 0 0-2.461-20.262-23.23-18.684-20.829 1.579-19.188 23.227-19.188 23.227s-26.32-18.621-25.625 10.48c.062-.066-1.578 10.602-9.47 10.665m0 0"/><path fill="#2e186a" d="M302.855 428.371H203.63a1.9 1.9 0 0 1-.727-.14 1.911 1.911 0 0 1-1.027-1.02 1.9 1.9 0 0 1-.145-.727q-.005-.376.141-.722a1.86 1.86 0 0 1 1.02-1.028 1.8 1.8 0 0 1 .722-.148l.196-.004c2.398-.09 4.28-1.45 5.746-4.152l.11-.207a16.4 16.4 0 0 0 1.507-4.328l.031-.168-.004-.29c-.105-6.917 1.313-11.921 4.215-14.87 1.965-1.993 4.582-3.005 7.79-3.005q1.377.006 2.737.227l.286.047a30.6 30.6 0 0 1 8.293 2.863c.656.324 1.32.672 1.968 1.035l.399.223.031-.36q.035-.362.07-.683l.043-.351q.456-3.96 1.996-7.633a20 20 0 0 1 2.852-4.903 20 20 0 0 1 4.101-3.914c3.184-2.234 7.153-3.547 11.79-3.898l.347-.024c.707-.046 1.41-.07 2.09-.07 4.023-.082 7.805.832 11.352 2.734q4.844 2.765 7.714 7.551a27 27 0 0 1 2.625 5.602l.141.43.172-.165a14.5 14.5 0 0 1 5.2-3.156q3.002-1.05 6.179-1.027c3.598.02 6.992.851 10.191 2.504a21.05 21.05 0 0 1 8.149 7.23l.23.36a12.8 12.8 0 0 1 1.961 5.789 16.24 16.24 0 0 1-1.047 7.125 29.4 29.4 0 0 1-3.976 7.164 42 42 0 0 1-3.395 4.058c-.71.75-1.2 1.215-1.43 1.426l-.152.14q-.54.486-1.266.485m-79.585-27.016a7.047 7.047 0 0 0-5.062 1.816c-2.196 2.11-3.282 6.114-3.235 11.903l.011.574.004.079v.214l-.015.141-.012.102-.031.191-.04.227c-.077.41-.187.87-.312 1.336a20 20 0 0 1-1.555 4.035 15 15 0 0 1-1.687 2.593l-.012.016h90.774l.324-.324.348-.356.183-.191a39 39 0 0 0 3.086-3.688c3.168-4.324 4.617-8.265 4.309-11.71a9 9 0 0 0-1.399-4.122 18.3 18.3 0 0 0-6.61-6.086 18.3 18.3 0 0 0-4.21-1.648 18.1 18.1 0 0 0-4.492-.57c-4.93 0-8.875 2.11-10.824 5.789l-.055.097q-.245.428-.68.672a1.8 1.8 0 0 1-.922.239 1.8 1.8 0 0 1-.68-.118 1.9 1.9 0 0 1-.59-.351 1.9 1.9 0 0 1-.624-1.2l-.032-.21-.082-.465a23 23 0 0 0-.476-1.961 23.8 23.8 0 0 0-2.617-5.98c-3.489-5.633-8.82-8.489-15.84-8.489-.7 0-1.426.027-2.16.082l-.328.028c-7.54.66-12.516 4.058-15.215 10.394a24.2 24.2 0 0 0-1.723 6.61 24.7 24.7 0 0 0-.187 3.945l.015.324q.025.791-.531 1.355a1.85 1.85 0 0 1-1.367.582 1.85 1.85 0 0 1-1.09-.351l-.246-.172-.442-.289-.046-.031-.153-.094-.422-.266a42 42 0 0 0-3.476-1.93 27 27 0 0 0-7.262-2.53 14.3 14.3 0 0 0-2.312-.212m0 0"/><g clip-path="url(#e)"><path fill="#2e186a" d="M785.223 445.855q.369 0 .715.141.34.136.605.395.269.257.414.597c.102.223.152.461.16.707q.012.37-.117.715a1.89 1.89 0 0 1-1.664 1.23l-.113.005H1.895a1.9 1.9 0 0 1-.715-.141 1.8 1.8 0 0 1-.606-.395 1.8 1.8 0 0 1-.414-.597 1.8 1.8 0 0 1-.16-.707 1.886 1.886 0 0 1 1.781-1.945l.114-.005Zm0 0"/></g></svg>