<svg xmlns="http://www.w3.org/2000/svg" width="300" height="173" version="1.0" viewBox="0 0 224.88 129.75"><defs><clipPath id="a"><path d="M44 68h150v61.5H44Zm0 0"/></clipPath><clipPath id="b"><path d="M56 113h65v16.5H56Zm0 0"/></clipPath><clipPath id="c"><path d="M.156 128h224.45v1.5H.155Zm0 0"/></clipPath></defs><path fill="#fff" d="M84.32 85.39c-1.761-.937-3.261-.495-4.914 1.262.754-4.25.735-9.398-2.636-10.261-3.465-.899-5.426 1.265-7.461 6.488.074-4.473-.805-10.246-4.508-10.48-4.16-.258-5.551 3.167-6.578 10.773-1.301-4.25-4.875-11.711-9.09-10.227-4.125 1.45-3.848 5.426-1.559 13.528-2.254-3.504-6.781-8.707-9.804-6.727-2.875 1.867-2.09 4.93 1.101 10.61-2.11-.915-4.289-1.008-6.047.714-3.941 3.887-2.035 7.57 3.406 14.407 5.461 6.835 44.66-5.262 46.512-8.34 1.871-3.098 4.785-10.024 1.578-11.746m0 0"/><path fill="#545454" d="M43.781 108.098h-.004c-4.082 0-6.765-.766-7.976-2.282a57 57 0 0 1-3.543-4.832c-.856-1.34-1.406-2.464-1.738-3.53l-.04-.134c-.37-1.261-.394-2.402-.078-3.488.32-1.086.985-2.121 2.035-3.152a5.054 5.054 0 0 1 3.645-1.523q.801.004 1.578.202l.047.012-.082-.148c-1.254-2.375-1.906-4.055-2.113-5.453l-.008-.075c-.137-.976-.043-1.808.281-2.539a4.23 4.23 0 0 1 1.688-1.87 3.1 3.1 0 0 1 1.773-.532c1.2 0 2.57.629 4.066 1.875q1.604 1.375 2.915 3.031l.046.059-.039-.153c-.683-2.808-.941-4.757-.84-6.32l.012-.16c.102-1.203.434-2.164 1.016-2.93.582-.77 1.41-1.336 2.527-1.73a4 4 0 0 1 1.301-.227c.95.024 1.8.32 2.559.887.945.7 1.746 1.531 2.41 2.504a25.3 25.3 0 0 1 2.785 5.293l.004.012.031-.196c.48-2.832 1.031-4.703 1.781-6.066l.04-.063a5.3 5.3 0 0 1 1.886-2.058 4.87 4.87 0 0 1 2.633-.68c.148 0 .305.008.457.016a3.72 3.72 0 0 1 2.52 1.148c.675.676 1.226 1.645 1.636 2.883.453 1.45.719 2.937.801 4.453l.004.035.066-.137c.79-1.597 1.594-2.734 2.465-3.472a4.25 4.25 0 0 1 2.965-1.121q.761.007 1.504.195l.11.027a3.7 3.7 0 0 1 2.163 1.457c.535.715.907 1.672 1.106 2.844.238 1.383.246 3.059.015 4.977l-.011.09.078-.055a3.9 3.9 0 0 1 2.328-.813 4.1 4.1 0 0 1 1.926.512l.066.035q.64.335 1.05.922.418.61.56 1.332c.21.988.136 2.238-.22 3.719-.488 2.027-1.542 4.535-2.753 6.543-.262.433-1.078.992-2.43 1.664a51 51 0 0 1-5.097 2.117 139 139 0 0 1-14.72 4.356c-3.46.824-6.66 1.457-9.507 1.882a53 53 0 0 1-7.68.657m-7.687-17.84q-1.699-.011-2.887 1.203c-1.793 1.773-2.293 3.43-1.672 5.55.547 1.86 1.88 4.009 4.758 7.657l.367.465c.496.62 1.356 1.09 2.563 1.402 1.168.305 2.672.457 4.465.457 4.269 0 10.156-.863 17.027-2.504a140 140 0 0 0 14.558-4.304c1.918-.7 3.594-1.383 4.852-1.985 1.23-.59 1.973-1.054 2.148-1.347 1.157-1.918 2.165-4.305 2.625-6.235.297-1.23.38-2.258.243-3.055-.141-.812-.504-1.378-1.079-1.687a3.1 3.1 0 0 0-1.476-.414c-.86 0-1.703.457-2.656 1.441l-.121.13a.51.51 0 0 1-.395.175.56.56 0 0 1-.434-.203.51.51 0 0 1-.117-.445c.469-2.633.528-4.895.172-6.54-.375-1.742-1.183-2.785-2.406-3.093a5 5 0 0 0-1.281-.18c-1.133 0-2.07.473-2.95 1.488-.859.996-1.675 2.536-2.578 4.844q-.123.357-.504.352a.55.55 0 0 1-.558-.559c.05-2.871-.274-5.297-.934-7.027-.691-1.813-1.75-2.813-3.054-2.899a7 7 0 0 0-.395-.011c-1.656 0-2.77.703-3.621 2.28-.832 1.556-1.445 4.032-1.988 8.032a.51.51 0 0 1-.18.344.53.53 0 0 1-.367.133q-.412.007-.524-.391c-.8-2.617-2.062-5.273-3.37-7.102-1.391-1.94-2.77-2.921-4.098-2.921q-.47-.001-.91.156c-1.797.629-2.637 1.719-2.81 3.644-.171 1.895.306 4.649 1.598 9.211a.52.52 0 0 1-.082.477.56.56 0 0 1-.457.226.5.5 0 0 1-.453-.253c-1.297-2.016-2.71-3.727-4.086-4.954-1.43-1.27-2.742-1.941-3.797-1.941a2.03 2.03 0 0 0-1.16.332c-1.222.797-1.68 1.816-1.484 3.313.195 1.484 1.047 3.511 2.762 6.57.109.18.105.363 0 .543a.54.54 0 0 1-.305.25.54.54 0 0 1-.39-.02 6.4 6.4 0 0 0-2.56-.605m0 0"/><path d="m84.629 96.988.039-.11-52.727.169.04.11a5.3 5.3 0 0 0-1 .296q-.482.194-.922.48a5.2 5.2 0 0 0-.817.645q-.375.364-.676.793a5.4 5.4 0 0 0-.515.902 5.6 5.6 0 0 0-.473 2.02 5 5 0 0 0 .059 1.039l3.941 25.434 53.438-.164 3.941-25.438a5.4 5.4 0 0 0 .059-1.035 5.533 5.533 0 0 0-.465-2.02 5.4 5.4 0 0 0-1.188-1.695 5.6 5.6 0 0 0-.812-.648 6 6 0 0 0-.922-.48 6 6 0 0 0-1-.298m0 0"/><g clip-path="url(#a)"><path fill="#5d21d1" d="M170.984 87.828c-.824 0-1.64.05-2.457.145-4.379-6.047-9.402-11.18-14.68-14.442-13.745-8.465-32.62-6.047-50.23.477-12.113 4.472-27.453 18.914-37.293 29.14-12.828.97-22.687 9.696-22.101 19.68.132 2.172.722 4.211 1.757 6.121l43.047.293c.075-.11.149-.238.223-.347l63.848-.22c.07.09.144.184.218.294l35.352-.055c3.281-4.344 5.242-9.894 5.242-15.96 0-13.891-10.265-25.126-22.926-25.126m0 0"/></g><path fill="#fff" d="M155.113 74.355c-16.258 10.082-30.843 10.301-40.3 8.672-8.758-1.504-15.083-4.875-17.133-6.195q-.52.3-1.063.606c1.684 1.152 8.281 4.964 17.813 6.632q4.665.826 9.398.825 4.841.005 9.606-.844c7.714-1.375 15.32-4.399 22.648-8.996-.328-.258-.64-.477-.969-.7M153.426 91.676c2.586-3.63 5.773-5.664 9.492-6.067a12 12 0 0 1 4.031.258c-.347-.441-.695-.883-1.043-1.305a12.8 12.8 0 0 0-3.043-.035c-2.804.293-6.87 1.649-10.336 6.524a.55.55 0 0 0-.093.41.55.55 0 0 0 .222.36q.136.11.313.109a.55.55 0 0 0 .457-.254M153.629 104.559a.56.56 0 0 0 .566-.532c.04-1.613.68-5.277 2.934-8.722 2.601-4.016 6.45-6.47 11.398-7.348-.238-.332-.476-.66-.734-.992-4.945 1.008-8.941 3.668-11.598 7.734-2.218 3.41-3.062 7.149-3.117 9.293a.53.53 0 0 0 .156.399c.11.109.239.168.395.168M75.98 99.152a26.3 26.3 0 0 0-6.21.477c-.551.55-1.102 1.101-1.633 1.648 2.035-1.117 13.617-2.507 18.398 2.934a.52.52 0 0 0 .422.184.57.57 0 0 0 .367-.13.51.51 0 0 0 .184-.374.52.52 0 0 0-.13-.395c-3.097-3.539-8.464-4.234-11.398-4.344M65.957 103.184h.035q-.017-.018-.035 0m0 0"/><path fill="#fff" d="M85.398 107.016c-6.468-4.895-14.53-5.188-17.941-5.04-.383.403-.77.786-1.133 1.172 1.961-.164 11.324-.605 18.414 4.747a.55.55 0 0 0 .774-.11.53.53 0 0 0 .101-.41.52.52 0 0 0-.215-.36M57.453 128.785s6.012-17.777 22.926-14.55c16.914 3.226 40.058 10.152 40.058 10.152v4.453Zm0 0"/><g clip-path="url(#b)"><path fill="#2e186a" d="m120.438 129.39-62.985-.054a.5.5 0 0 1-.25-.063.5.5 0 0 1-.195-.168.5.5 0 0 1-.098-.238.5.5 0 0 1 .024-.258q.004-.016.015-.05l.07-.192c.028-.074.051-.14.079-.203l.09-.226a28.596 28.596 0 0 1 4.098-6.969 23 23 0 0 1 3.413-3.469 19.1 19.1 0 0 1 4.008-2.535q1.77-.825 3.676-1.246a18.6 18.6 0 0 1 3.992-.426q2.073.007 4.105.402c3.153.602 6.747 1.375 10.68 2.297l.668.16c2.34.551 4.824 1.164 7.387 1.817a630 630 0 0 1 15.02 4.05c1.6.458 3.167.903 4.644 1.336l.988.29.73.218q.392.113.391.524v4.453a.543.543 0 0 1-.55.55m-44.063-15a16.7 16.7 0 0 0-7.203 1.575c-2.61 1.215-4.973 3.133-7.031 5.695a27.3 27.3 0 0 0-3.188 5.035c-.238.485-.46.961-.648 1.422l-.051.121 61.637.051v-3.492l-1.704-.5a804 804 0 0 0-4.253-1.219l-.77-.219a613 613 0 0 0-14.223-3.824 405 405 0 0 0-7.367-1.812c-4.183-.993-7.984-1.817-11.3-2.446a21 21 0 0 0-3.899-.386m0 0"/></g><path fill="#fff" d="M191.012 63.125s-1.356-.68-1.52-2.238c-.164-1.559.88-8.336 2.567-9.29 1.703-.952 9.457-5.152 10.882-5.058 1.43.09 2.02 12.535-11.93 16.586m0 0"/><path fill="#fff" d="M191.836 52.348c2.898-10.133 5.262-12.407 6.637-11.418 1.246.898-1.286 7.351-2.016 10.703"/><path fill="#2e186a" d="m195.266 42.164.09-.133c1.171-1.718 2.386-2.3 3.437-1.547.617.446.687 1.368.437 2.832l-.035.207c-.164.907-.437 1.965-.882 3.504l-.731 2.485c-.34 1.172-.453 1.61-.59 2.238a.52.52 0 0 1-.242.344.5.5 0 0 1-.41.074.52.52 0 0 1-.348-.238.54.54 0 0 1-.074-.414l.05-.235c.122-.52.239-.976.52-1.937l.73-2.5q.57-1.83.927-3.711l.023-.137c.148-.957.102-1.531-.016-1.621-.422-.3-1.066.023-1.968 1.395l-.082.125c-1.157 1.82-2.422 5.007-3.735 9.605a.54.54 0 0 1-.262.328.52.52 0 0 1-.417.047.52.52 0 0 1-.333-.262.54.54 0 0 1-.046-.418l.093-.328c1.34-4.625 2.637-7.84 3.864-9.703m0 0"/><path fill="#fff" d="M204.61 50.148c1.449-2.363 3.85-2.234 2.605 1.778-1.23 3.922-2.13 9.015-4.418 11.324-2.293 2.313-3.117 3.336-3.117 3.336s-4.578 17.098-7.184 31.32c-3.754 20.563-10.867 24.52-17.5 22.156-6.633-2.343-7.863-11.656 1.191-29.707 9.051-18.07 13.836-28.59 13.836-28.59"/><path fill="#2e186a" d="M204.14 49.863c.825-1.343 2.02-2.097 2.977-1.73 1.055.402 1.262 1.836.645 3.875l-.133.433c-.156.524-.32 1.094-.535 1.88l-.399 1.445c-1.168 4.203-2.027 6.355-3.46 7.824l-.36.363a77 77 0 0 0-1.887 1.977l-.199.222q-.317.353-.523.594l-.082.098-.293 1.097-.258 1c-.254.973-.524 2.04-.813 3.184a536 536 0 0 0-3.07 12.793l-.21.937a373 373 0 0 0-1.274 5.899l-.16.77q-.51 2.484-.938 4.78l-.129.7c-1.793 9.808-4.434 16.367-7.812 19.953-3.024 3.211-6.594 3.984-10.415 2.625-3.671-1.3-5.648-4.539-5.652-9.48-.004-5.149 2.106-12.102 6.406-20.727l.844-1.691a1226 1226 0 0 0 9.059-18.512l1.015-2.137q.946-1.98 1.707-3.62l.805-1.728.527-1.148a.54.54 0 0 1 .301-.285.53.53 0 0 1 .41.008q.212.085.293.289a.53.53 0 0 1 .008.414l-.066.152-.574 1.242-.782 1.684a1735 1735 0 0 1-2.015 4.273l-.774 1.614a1187 1187 0 0 1-9.644 19.672c-8.317 16.582-8.309 26.535-1.5 28.941 3.418 1.219 6.527.547 9.246-2.34 3.176-3.367 5.722-9.648 7.476-19.11l.055-.284c.363-1.98.773-4.079 1.23-6.278.458-2.207.958-4.496 1.489-6.855.926-4.082 1.91-8.184 2.902-12.125l.402-1.594.536-2.094.343-1.312.29-1.106a.6.6 0 0 1 .105-.203l.074-.09.102-.117c.144-.172.324-.375.543-.617l.277-.305a84 84 0 0 1 2.156-2.25l.082-.086c1.176-1.23 1.973-3.156 3-6.78l.66-2.384c.184-.652.329-1.16.477-1.636l.066-.211c.493-1.598.375-2.477.036-2.606-.336-.129-1.067.332-1.645 1.278a.52.52 0 0 1-.34.246.54.54 0 0 1-.418-.067.52.52 0 0 1-.246-.34.53.53 0 0 1 .067-.414Zm0 0"/><path fill="#fff" d="M190.188 62.078c-1.32-.898-1.153-6.066-2.637-8.32-1.836-2.805-3.63-5.715-.238-5.278 2.914.368 3.828 2.934 4.507 3.848"/><path fill="#2e186a" d="M184.938 50.035c-.38-1.535.515-2.351 2.44-2.101 1.622.207 2.794 1.007 3.743 2.285l.043.058c.348.489 1.004 1.594 1.094 1.72l.004.007a.53.53 0 0 1 .113.414.52.52 0 0 1-.219.367.53.53 0 0 1-.418.102.52.52 0 0 1-.36-.23l-.019-.028c-.156-.23-.843-1.379-1.12-1.758-.786-1.055-1.708-1.684-2.997-1.844-.676-.09-1.066-.027-1.21.106-.087.074-.114.258-.036.59l.012.047c.187.77.738 1.75 1.941 3.593l.063.094c.558.852.906 1.98 1.258 3.785l.07.371.215 1.164c.336 1.774.597 2.59.925 2.836l.016.012a.53.53 0 0 1 .23.352.53.53 0 0 1-.085.41.53.53 0 0 1-.352.23.54.54 0 0 1-.41-.082c-.688-.469-.984-1.336-1.383-3.445l-.25-1.336-.035-.188c-.328-1.699-.64-2.746-1.094-3.46l-.34-.524c-1.105-1.719-1.62-2.672-1.84-3.547m0 0"/><path fill="#fff" d="M202.926 54.438s2.582-6.27 3.445-9.184c.953-3.168-2.383-3.625-3.996.937"/><path fill="#2e186a" d="M205.3 42.273c1.427-.093 2.126 1.301 1.614 3.079l-.016.058c-.265.89-.695 2.13-1.257 3.633l-.102.27q-.118.309-.242.628a171 171 0 0 1-1.117 2.86l-.313.781-.324.797-.11.266a.53.53 0 0 1-.288.296.53.53 0 0 1-.415.012.54.54 0 0 1-.304-.281.53.53 0 0 1-.02-.414l.442-1.09.148-.367c.379-.95.762-1.914 1.121-2.852l.235-.61.156-.417c.59-1.555 1.039-2.84 1.312-3.746l.024-.078c.351-1.168.062-1.762-.473-1.727-.793.05-1.812 1.121-2.476 3.004a.545.545 0 0 1-.703.332.53.53 0 0 1-.313-.281.52.52 0 0 1-.024-.418c.797-2.254 2.13-3.649 3.446-3.735m0 0"/><path fill="#fff" d="M199.883 52.79s5.078-11.493 2.804-12.52c-2.07-.934-3.648 3.261-6.25 11.363"/><path fill="#2e186a" d="M199.348 42.164c1.101-2.133 2.222-3 3.566-2.394 1.379.625 1.117 3.003-.117 6.89q-.316.991-.703 2.059a78 78 0 0 1-1.04 2.703l-.132.324c-.125.3-.242.582-.348.828l-.187.438a.53.53 0 0 1-.305.285.545.545 0 0 1-.71-.313.54.54 0 0 1 .007-.418l.144-.332.118-.277c.082-.195.172-.406.261-.629.395-.957.79-1.969 1.157-2.984.254-.696.484-1.371.691-2.016l.09-.289c.926-2.996 1.133-5.035.62-5.266-.636-.289-1.315.262-2.206 2.04l-.106.207c-.82 1.687-1.703 4.156-3.187 8.78a.52.52 0 0 1-.274.321.52.52 0 0 1-.417.035.52.52 0 0 1-.32-.273.52.52 0 0 1-.036-.418l.32-.988c1.36-4.188 2.192-6.47 3.008-8.106Zm0 0"/><path fill="#fff" d="m116.922 61.145.715 12.957s-1.211 7 8.504 5.699c9.675-1.285 8.484-7.02 8.484-7.02l-2.988-16.09Zm0 0"/><path fill="#2e186a" d="M123.875 80.512c-1.64 0-3.016-.29-4.086-.856a4.8 4.8 0 0 1-2.254-2.402 5.9 5.9 0 0 1-.46-3.121l.007-.059-.71-12.898a.55.55 0 0 1 .39-.559l14.715-4.453a.53.53 0 0 1 .445.059c.14.082.226.207.254.367l2.992 16.101q.008.044.016.11l.011.078q.104.954-.148 1.883a5.7 5.7 0 0 1-1.004 1.988c-1.453 1.89-4.086 3.098-7.832 3.594-.773.11-1.555.164-2.336.168m7.332-23.117-13.715 4.152.692 12.523a.3.3 0 0 1 0 .082l-.004.043-.012.075-.008.078c-.09.851.04 1.672.38 2.46.776 1.731 2.558 2.61 5.296 2.61a16 16 0 0 0 2.23-.164c3.446-.457 5.836-1.524 7.102-3.172q1.091-1.353.934-3.082l-.012-.09Zm0 0"/><path fill="#fff" d="M135.355 40.344s7.516-2.824 7.81 5.004c.292 7.824-7.81 5.789-7.81 5.789"/><path fill="#2e186a" d="M136.086 39.563a8.4 8.4 0 0 1 3.266-.176c2.59.422 4.226 2.316 4.363 5.941.14 3.746-1.531 5.797-4.332 6.41a9.6 9.6 0 0 1-3.48.063l-.176-.028a7 7 0 0 1-.504-.101.52.52 0 0 1-.332-.246.53.53 0 0 1-.07-.406.53.53 0 0 1 .234-.34.53.53 0 0 1 .406-.082l.117.027.059.012c.125.027.27.05.43.078a8.6 8.6 0 0 0 3.081-.05c2.293-.505 3.586-2.095 3.465-5.298l-.008-.187c-.16-2.977-1.402-4.38-3.43-4.707a7.3 7.3 0 0 0-2.84.16c-.183.043-.355.09-.507.137l-.078.023q-.084.024-.137.043l-.062.023a.53.53 0 0 1-.422-.015.54.54 0 0 1-.29-.309.54.54 0 0 1 .016-.418.52.52 0 0 1 .31-.289l.07-.023a8 8 0 0 1 .85-.242m0 0"/><path fill="#fff" d="M121.266 65.086a14.8 14.8 0 0 1-8.188-2.484 15 15 0 0 1-2.234-1.832 15 15 0 0 1-1.832-2.235 14.9 14.9 0 0 1-2.2-5.308 15 15 0 0 1-.28-2.875V37.484q-.001-.925.179-1.84c.125-.605.3-1.195.539-1.769.238-.57.527-1.117.875-1.629a9.4 9.4 0 0 1 1.172-1.43 9 9 0 0 1 1.43-1.175 9.5 9.5 0 0 1 5.242-1.594h12.902q.705 0 1.39.14.692.136 1.34.407a7.1 7.1 0 0 1 3.208 2.633q.39.584.66 1.234t.41 1.34q.136.691.137 1.394v15.137q0 1.455-.282 2.879c-.191.95-.468 1.871-.84 2.766a15 15 0 0 1-1.363 2.55 14.8 14.8 0 0 1-4.07 4.07 14.8 14.8 0 0 1-5.32 2.204c-.95.187-1.907.285-2.875.285m0 0"/><path fill="#2e186a" d="M121.266 65.633a15 15 0 0 1-4.47-.664 15 15 0 0 1-4.077-1.946c-2.512-1.695-4.356-3.937-5.54-6.722a15.05 15.05 0 0 1-1.199-5.95V37.485q.001-.984.196-1.945a9.8 9.8 0 0 1 .566-1.875 10.1 10.1 0 0 1 2.168-3.238q.692-.698 1.512-1.242a10 10 0 0 1 1.726-.922 10 10 0 0 1 1.872-.57 10.2 10.2 0 0 1 1.949-.196h12.902c.504.004 1.004.05 1.5.152q.744.146 1.441.438c.47.195.91.43 1.333.71a8 8 0 0 1 1.164.958c.359.36.675.746.957 1.168a7.814 7.814 0 0 1 1.152 2.773q.148.738.148 1.5v15.137c.004 3.086-.847 5.91-2.562 8.477-1.664 2.496-3.867 4.347-6.617 5.55a15.1 15.1 0 0 1-5.875 1.274Zm-5.297-37.035a8.88 8.88 0 0 0-7.387 3.953 9 9 0 0 0-.824 1.535 9 9 0 0 0-.504 1.668 9 9 0 0 0-.176 1.73v12.868q.004 1.394.277 2.765.27 1.366.81 2.656a14.1 14.1 0 0 0 3.073 4.602 14.106 14.106 0 0 0 4.598 3.074 13.8 13.8 0 0 0 2.656.809q1.371.276 2.766.277l.242-.004c7.7-.125 13.969-6.492 13.969-14.199V35.195a7 7 0 0 0-.13-1.289 6.5 6.5 0 0 0-.378-1.234 6.3 6.3 0 0 0-.61-1.14 6.54 6.54 0 0 0-1.82-1.82 6.6 6.6 0 0 0-1.136-.61 6.3 6.3 0 0 0-1.239-.375 6.5 6.5 0 0 0-1.285-.13Zm0 0"/><path fill="#545454" d="M139.445 57.313q.002-4.822-.898-9.567c0-.055.016-.125.016-.18a2.075 2.075 0 0 0-1.29-1.933 2.1 2.1 0 0 0-.796-.156v2.09l.054 2.085q.644-.022 1.172-.402c.676 4.215 2.016 16.79-3.629 27.473a346 346 0 0 1-2.949 5.515c-5.316 9.914-8.836 16.473-8.742 22.32a.55.55 0 0 0 .164.387q.157.158.387.164a.53.53 0 0 0 .386-.164.53.53 0 0 0 .16-.386c-.074-5.57 3.391-12.024 8.614-21.79.937-1.757 1.906-3.554 2.953-5.535 3.683-6.98 4.433-14.68 4.398-19.921M105.102 49.89c.257.157.539.239.843.258v-4.16q-.352.03-.672.176a1.9 1.9 0 0 0-.574.387c-.172.16-.308.347-.418.554q-.159.313-.207.66a.6.6 0 0 0-.09.313c0 .844 0 20.578 5.864 29.488 5.992 9.125 7.843 14.329 8.265 23.164q.011.218.168.372a.56.56 0 0 0 .38.16h.019a.55.55 0 0 0 .379-.18.52.52 0 0 0 .152-.39c-.422-9.09-2.309-14.403-8.45-23.731-4.69-7.113-5.515-21.918-5.66-27.07m0 0"/><path fill="#2e186a" d="M116.746 40.95a.52.52 0 0 1 .379.144q.163.145.18.363v.031l.199 11.637h.008q.074.024.144-.012l.028-.008c.28-.12.656-.53 1.082-1.312a.53.53 0 0 1 .328-.266.54.54 0 0 1 .418.043.54.54 0 0 1 .265.328.52.52 0 0 1-.047.418c-1.003 1.84-2.085 2.305-2.949 1.653a1.2 1.2 0 0 1-.273-.282.5.5 0 0 1-.098-.261l-.004-.043-.199-11.875a.52.52 0 0 1 .152-.39.54.54 0 0 1 .387-.169M122.54 54.855a.547.547 0 0 1 .488-.055.5.5 0 0 1 .21.137.6.6 0 0 1 .13.22l.01.046q.02.075.044.2a3.04 3.04 0 0 1-.317 2.038c-.613 1.137-1.94 1.875-4.078 2.086a.545.545 0 0 1-.598-.492.52.52 0 0 1 .122-.402.53.53 0 0 1 .367-.2c1.8-.175 2.797-.73 3.219-1.515.101-.188.168-.383.207-.594l.011-.078-.02.008c-2.386 1.289-4.776 1.375-5.956.05l-.043-.046a.549.549 0 0 1 .465-.898.55.55 0 0 1 .375.187c.847.996 3.101.789 5.363-.692M121.754 36.66c1.2-.914 2.621-1.012 4.16.211a.53.53 0 0 1 .203.367.54.54 0 0 1-.117.407.52.52 0 0 1-.367.203.53.53 0 0 1-.406-.114c-1.11-.886-1.985-.828-2.809-.199a4 4 0 0 0-.316.274l-.204.199a1 1 0 0 1-.078.07.56.56 0 0 1-.605.09.542.542 0 0 1-.3-.629.52.52 0 0 1 .202-.309l.024-.02.12-.116q.23-.235.493-.434M126.488 45q0 .281-.07.54a1.6 1.6 0 0 1-.2.456 1 1 0 0 1-.296.309.66.66 0 0 1-.352.105.66.66 0 0 1-.351-.105 1.1 1.1 0 0 1-.297-.309 1.6 1.6 0 0 1-.2-.457 2 2 0 0 1-.066-.539q-.002-.28.067-.54.07-.261.199-.46.13-.199.297-.305a.66.66 0 0 1 .351-.105q.182 0 .352.105.168.105.297.305.129.198.199.46.07.259.07.54M113.164 45.348q0 .28-.07.539a1.6 1.6 0 0 1-.2.457 1 1 0 0 1-.296.308.635.635 0 0 1-.7 0 1 1 0 0 1-.296-.308 1.6 1.6 0 0 1-.2-.457 2 2 0 0 1-.07-.54q0-.281.07-.538.07-.263.2-.461c.085-.13.183-.235.296-.305a.64.64 0 0 1 .7 0c.113.07.21.176.297.305q.128.198.199.46.07.258.07.54M109.691 36.488c1.371-1.097 2.88-1.148 4.2.551a.52.52 0 0 1 .113.406.51.51 0 0 1-.207.367.53.53 0 0 1-.406.114.53.53 0 0 1-.368-.211c-.89-1.149-1.703-1.121-2.644-.367q-.195.151-.371.328l-.215.215q-.045.04-.078.074a.56.56 0 0 1-.25.125.53.53 0 0 1-.363-.035.52.52 0 0 1-.262-.262.54.54 0 0 1 .164-.672l.02-.016.144-.144q.247-.25.523-.473m0 0"/><path fill="#2e186a" d="M124.95 24.84c-3.575.055-6.29.219-7.9.531-13.124 2.988-10.995 12.7-10.995 12.7s6.414 1.23 11.636-6.505c0 0 7.164 5.844 17.774 8.211.168-.039.367-.093.55-.148v.531a8.5 8.5 0 0 1 2.676-.273c-.109-3.832-.804-8.668-3.957-11.785-2.238-2.215-5.535-3.317-9.785-3.262m0 0"/><path fill="#fff" d="M117.34 24.188a64 64 0 0 1 8.219-.465c5.664.058 9.449 2.148 11.691 5.828a16 16 0 0 1 1.914 4.949q.469 2.166.625 4.387a.52.52 0 0 1-.129.394.52.52 0 0 1-.37.192.53.53 0 0 1-.4-.121.52.52 0 0 1-.195-.372l-.03-.328c-.34-3.695-.927-6.191-2.352-8.53-2.043-3.352-5.477-5.243-10.762-5.302h-.324a63 63 0 0 0-7.735.453.52.52 0 0 1-.41-.105.52.52 0 0 1-.21-.363.5.5 0 0 1 .105-.407.52.52 0 0 1 .363-.21m0 0"/><path fill="#2e186a" d="M159.383 16.867C154.855 3.93 142.027-3.343 130.719.613c-9.29 3.242-14.66 13.086-13.781 23.66 1.707-.293 4.382-.476 8.011-.53 4.563-.055 8.117 1.136 10.574 3.57 3.48 3.445 4.196 8.671 4.286 12.738 1.687.457 3.246 1.832 3.375 5.297.015.347-.293 3.043-.223 3.023a5.7 5.7 0 0 0 .824 3.004c1.266 2.035 3.832 3.3 7.645 3.738h.074a.51.51 0 0 0 .375-.14.52.52 0 0 0 .176-.364.52.52 0 0 0-.125-.382.51.51 0 0 0-.356-.192c-3.445-.406-5.754-1.484-6.836-3.226a4.4 4.4 0 0 1-.66-2.036c.938 1.102 2.567 2.293 5.152 2.293a10.5 10.5 0 0 0 2.036-.222.54.54 0 0 0 .188-.984.52.52 0 0 0-.411-.079c-3.336.7-5.184-.566-6.156-1.703q1.127-.245 2.218-.625c11.286-3.976 16.786-17.664 12.278-30.586M126.36 52.605a7.2 7.2 0 0 1-2.438-.425 7.26 7.26 0 0 1-3.777-3.086 7.2 7.2 0 0 1-.895-2.309 7.2 7.2 0 0 1 .691-4.824A7.2 7.2 0 0 1 121.453 40a7.23 7.23 0 0 1 4.856-1.91 7.2 7.2 0 0 1 2.78.531 7.3 7.3 0 0 1 1.259.664 7.2 7.2 0 0 1 2.02 1.988c.265.395.491.809.679 1.25q.275.657.422 1.36.142.698.148 1.414a7.2 7.2 0 0 1-.531 2.781 7 7 0 0 1-.664 1.258 7.2 7.2 0 0 1-1.988 2.02 7.6 7.6 0 0 1-1.25.68 7.2 7.2 0 0 1-2.825.57m0-13.414c-.407 0-.805.04-1.204.118a6 6 0 0 0-1.152.351 6.1 6.1 0 0 0-2 1.332q-.427.429-.766.934a6.4 6.4 0 0 0-.57 1.066 6.2 6.2 0 0 0-.469 2.356c0 .402.043.804.121 1.199q.118.598.348 1.156.236.562.57 1.067.339.501.766.933.429.427.933.766c.336.222.692.414 1.067.566.371.156.758.274 1.152.352a6.2 6.2 0 0 0 2.403 0 6 6 0 0 0 1.156-.352 6.06 6.06 0 0 0 2.762-2.265q.34-.504.57-1.067.234-.558.351-1.156a6.2 6.2 0 0 0-.351-3.555 6.284 6.284 0 0 0-1.336-1.996 6.183 6.183 0 0 0-3.152-1.687 6 6 0 0 0-1.2-.118m0 0"/><path fill="#2e186a" d="M119.504 44.633q.223-.002.383.156.163.152.168.379a.53.53 0 0 1-.145.387.53.53 0 0 1-.375.175h-4.39a.55.55 0 0 1-.387-.152.54.54 0 0 1-.164-.379.53.53 0 0 1 .144-.386.52.52 0 0 1 .371-.18ZM135.746 39.48a.54.54 0 0 1 .41-.054q.216.058.332.246a.54.54 0 0 1 .067.41.55.55 0 0 1-.239.34l-.03.016-3.794 2.144a.52.52 0 0 1-.41.055.545.545 0 0 1-.394-.657.53.53 0 0 1 .234-.34l.031-.015Zm0 0"/><path fill="#2e186a" d="M108.215 52.605a7.2 7.2 0 0 1-2.438-.425 7.2 7.2 0 0 1-2.152-1.215 7.247 7.247 0 0 1-2.59-6.652 7.1 7.1 0 0 1 .766-2.352c.39-.742.89-1.395 1.508-1.961a7.3 7.3 0 0 1 2.082-1.34c.441-.183.89-.324 1.359-.422a7 7 0 0 1 1.414-.148 7.2 7.2 0 0 1 2.781.531 7.3 7.3 0 0 1 2.368 1.559q.51.5.91 1.093c.27.395.496.809.68 1.25q.28.657.421 1.36.147.698.153 1.414.001.715-.133 1.418a7.2 7.2 0 0 1-1.063 2.62 7.4 7.4 0 0 1-.898 1.11c-.332.34-.7.64-1.094.91a7.4 7.4 0 0 1-1.25.68 7.2 7.2 0 0 1-2.824.57m0-13.414q-.606 0-1.2.118a6 6 0 0 0-1.156.351 6 6 0 0 0-1.066.567 6.3 6.3 0 0 0-1.695 1.699 6 6 0 0 0-.57 1.066 6 6 0 0 0-.352 1.153 6.2 6.2 0 0 0 0 2.402q.117.598.351 1.156c.157.375.344.73.57 1.067q.334.501.766.933.427.427.93.766c.34.222.691.414 1.066.566q.56.234 1.157.352a6.18 6.18 0 0 0 5.554-1.684q.427-.432.766-.933.335-.504.57-1.067a6 6 0 0 0 .348-1.156q.119-.594.121-1.2a6.6 6.6 0 0 0-.121-1.202 6 6 0 0 0-.352-1.153 6 6 0 0 0-.57-1.062 6 6 0 0 0-.766-.934 6.077 6.077 0 0 0-1.996-1.336 6 6 0 0 0-1.152-.351 6.2 6.2 0 0 0-1.203-.118m0 0"/><path fill="#545454" d="M154.344 121.914h-3.813l-1.87-27.726a3.8 3.8 0 0 0-1.196-2.489 3.8 3.8 0 0 0-1.184-.754 3.8 3.8 0 0 0-1.375-.277H91.777a3.2 3.2 0 0 0-1.32.258q-.311.135-.594.328a3 3 0 0 0-.508.445 3 3 0 0 0-.406.54 3.176 3.176 0 0 0-.441 1.273q-.041.334-.012.675l2.07 30.696a3.824 3.824 0 0 0 3.758 3.52l60-.075q.394 0 .758-.152a1.987 1.987 0 0 0 1.223-1.828v-2.438a1.966 1.966 0 0 0-1.961-1.996m0 0"/><path fill="#fff" d="M122.09 109.012a5.06 5.06 0 0 0-2.824-1.52 1.85 1.85 0 0 0 .312-.844 2 2 0 0 0-.07-.703 1.8 1.8 0 0 0-.32-.629 1.9 1.9 0 0 0-1.184-.722h-.059c-.199-.75-.586-1.996-1.023-2.528a.56.56 0 0 0-.324-.195.57.57 0 0 0-.375.047.37.37 0 0 0-.176.277.37.37 0 0 0 .105.313c.293.347.641 1.43.86 2.254a1.64 1.64 0 0 0-.63.57 1.7 1.7 0 0 0-.269.805 1.87 1.87 0 0 0 .516 1.484q-.492.154-.938.418c-1.906 1.191-2.144 3.54-.53 5.281 1.612 1.723 4.491 2.16 6.398.97 1.921-1.192 2.16-3.556.53-5.278m0 0"/><path fill="#fff" d="M121.281 101.977s-2.746-.551-3.113 1.738c.016 0 2.18.77 3.113-1.738m0 0"/><g clip-path="url(#c)"><path fill="#2e186a" d="M224.145 128.402a.543.543 0 0 1 .55.532.53.53 0 0 1-.144.386.5.5 0 0 1-.371.18H.734a.52.52 0 0 1-.382-.156.5.5 0 0 1-.168-.375.53.53 0 0 1 .144-.39.53.53 0 0 1 .375-.177Zm0 0"/></g></svg>